<?xml version="1.0" standalone="no"?>
<!DOCTYPE svg PUBLIC "-//W3C//DTD SVG 20010904//EN"
 "http://www.w3.org/TR/2001/REC-SVG-20010904/DTD/svg10.dtd">
<svg version="1.0" xmlns="http://www.w3.org/2000/svg"
 width="322.000000pt" height="309.000000pt" viewBox="0 0 322.000000 309.000000"
 preserveAspectRatio="xMidYMid meet">

<g transform="translate(0.000000,309.000000) scale(0.100000,-0.100000)"
fill="#000000" stroke="none">
<path d="M1460 3074 c-275 -34 -533 -132 -743 -281 -105 -74 -286 -255 -360
-360 -126 -178 -225 -413 -263 -628 -23 -132 -24 -385 -1 -510 59 -327 202
-602 431 -831 542 -542 1381 -603 2005 -147 165 121 359 350 453 536 147 291
198 632 143 952 -108 623 -597 1122 -1222 1245 -105 21 -358 34 -443 24z
m-244 -205 c8 -16 26 -36 39 -45 19 -13 25 -25 25 -54 0 -20 4 -50 9 -66 5
-16 12 -51 15 -78 5 -43 4 -47 -10 -35 -8 7 -24 30 -35 52 -18 35 -24 39 -50
33 -25 -5 -29 -2 -35 22 -3 15 -9 36 -14 47 -23 53 -22 65 5 77 16 7 24 17 20
26 -3 7 -8 25 -11 38 -5 20 -3 23 10 18 9 -4 23 -19 32 -35z m842 -9 c3 -17
-5 -31 -27 -49 l-32 -26 61 0 c52 -1 61 2 66 20 4 11 14 30 22 43 22 34 38 12
18 -26 -22 -42 -21 -45 19 -40 23 3 35 0 35 -8 0 -19 -41 -44 -72 -44 -16 0
-28 -4 -28 -10 0 -5 3 -10 8 -10 4 0 13 -4 21 -9 15 -10 3 -40 -31 -77 -18
-21 -18 -24 -3 -60 9 -21 26 -49 37 -61 28 -30 21 -35 -26 -21 -38 12 -86 58
-86 84 0 8 -9 14 -20 14 -25 0 -72 23 -88 42 -9 11 -6 22 10 49 l21 34 9 -32
c8 -31 24 -50 34 -40 3 3 -1 23 -8 45 -12 34 -16 38 -35 31 -12 -4 -29 -22
-38 -38 -17 -35 -27 -38 -45 -16 -7 8 -21 15 -31 15 -43 0 -32 45 14 54 46 9
77 43 77 83 0 29 3 33 18 29 12 -4 28 4 47 24 33 34 48 34 53 0z m-986 -52
c-3 -48 22 -123 38 -113 6 3 10 15 10 25 0 10 5 22 11 25 7 5 9 -12 8 -51 -2
-41 2 -69 15 -93 14 -27 15 -35 5 -42 -17 -10 -29 -2 -29 21 0 30 -19 33 -32
6 -20 -46 -38 -25 -38 46 0 40 0 41 -20 23 -18 -17 -20 -17 -26 -1 -4 11 2 29
16 48 18 25 21 38 15 74 -7 50 1 87 18 81 7 -3 11 -21 9 -49z m630 -218 c252
-24 476 -129 654 -306 128 -128 220 -289 272 -474 24 -86 27 -111 27 -265 -1
-144 -4 -182 -23 -252 -103 -381 -379 -659 -760 -766 -67 -18 -103 -21 -267
-21 -178 0 -196 2 -278 27 -372 115 -638 386 -737 752 -33 121 -38 339 -12
465 94 450 473 796 922 839 47 5 87 9 90 10 3 0 53 -4 112 -9z m-1171 -280
c26 -27 50 -50 54 -50 5 0 23 18 42 40 40 46 67 53 57 16 -5 -20 2 -33 36 -66
45 -44 46 -56 9 -115 -38 -61 -34 -58 -67 -41 -17 9 -47 16 -66 16 -44 0 -50
10 -31 52 l16 33 -45 49 c-42 44 -49 48 -80 43 -29 -5 -35 -2 -40 16 -6 24 24
57 52 57 9 0 37 -22 63 -50z m2259 35 c16 -19 6 -46 -30 -80 l-30 -28 30 -19
c21 -12 30 -26 30 -44 0 -25 -1 -26 -22 -12 -67 44 -66 43 -100 29 -18 -8 -51
-16 -74 -18 -33 -4 -46 0 -70 20 -24 21 -27 27 -15 41 7 9 27 16 44 16 29 0
29 1 14 18 -22 24 -22 61 0 69 11 4 25 -4 44 -25 16 -18 31 -32 34 -32 3 0 28
18 56 40 55 43 70 48 89 25z m-145 -225 c30 -58 13 -109 -26 -74 -13 12 -19
30 -19 61 0 52 21 59 45 13z m272 -445 c26 -18 65 -118 61 -154 -2 -20 -8 -25
-23 -23 -11 2 -41 5 -67 7 l-47 3 2 -35 c2 -44 -18 -55 -34 -19 -9 19 -20 26
-39 26 -31 0 -45 13 -55 52 -6 22 0 34 32 67 21 23 41 41 46 41 4 0 7 -13 7
-29 0 -30 38 -71 66 -71 21 0 17 18 -6 30 -11 6 -20 15 -20 20 0 19 34 10 62
-17 15 -14 30 -24 33 -22 9 10 -36 71 -65 87 -31 18 -39 37 -17 45 23 10 42 7
64 -8z m118 -11 c0 -20 -48 -50 -53 -33 -6 15 28 61 41 56 7 -2 12 -12 12 -23z
m-2623 -82 c17 -7 28 -21 33 -41 11 -52 45 -34 45 24 0 53 21 71 40 34 9 -15
8 -33 -1 -70 -14 -55 -37 -74 -75 -65 -19 5 -28 1 -42 -22 -17 -28 -18 -29
-57 -16 -36 11 -38 13 -17 19 12 4 22 13 22 21 0 16 -43 29 -60 19 -6 -4 -35
16 -65 44 -30 28 -61 51 -71 51 -13 0 -14 3 -4 15 7 9 29 15 52 15 25 0 52 9
76 25 l37 25 30 -33 c16 -19 42 -39 57 -45z m2638 19 c0 -14 -18 -23 -30 -16
-6 4 -8 11 -5 16 8 12 35 12 35 0z m29 -67 c33 -7 41 -30 19 -52 -21 -21 -44
-13 -61 23 -18 39 -16 40 42 29z m-1511 -1160 c26 -17 30 -69 8 -113 -47 -89
-173 -132 -207 -70 -8 15 -7 24 2 36 12 13 15 13 30 -6 23 -28 43 -26 79 7
l31 27 -27 2 c-50 2 -70 56 -38 101 29 42 71 48 122 16z m-168 9 c0 -4 -32
-56 -71 -115 -68 -102 -74 -108 -106 -108 -39 0 -41 -7 27 95 27 40 47 81 46
94 -1 18 6 27 24 32 34 9 80 11 80 2z m662 -10 c21 -19 23 -44 6 -61 -17 -17
-48 -15 -48 3 0 8 5 15 10 15 6 0 10 5 10 10 0 19 -49 10 -77 -14 -25 -22 -26
-24 -6 -19 31 7 77 -39 68 -70 -10 -34 -62 -77 -93 -77 -66 0 -94 55 -64 123
39 86 144 135 194 90z m-209 -1 c7 -9 -28 -52 -42 -52 -6 0 -11 5 -11 10 0 16
-57 12 -64 -5 -3 -8 0 -15 6 -15 6 0 20 -7 30 -17 27 -24 24 -78 -7 -108 -48
-49 -145 -23 -145 39 0 32 24 50 56 42 31 -8 30 -43 -1 -38 -19 3 -19 3 -3
-14 14 -15 22 -16 43 -6 49 23 24 82 -35 82 -20 0 -19 2 10 45 l31 45 64 0
c35 0 66 -3 68 -8z"/>
<path d="M1200 2730 c0 -5 5 -10 10 -10 6 0 10 5 10 10 0 6 -4 10 -10 10 -5 0
-10 -4 -10 -10z"/>
<path d="M2030 2741 c0 -6 5 -13 10 -16 6 -3 10 1 10 9 0 9 -4 16 -10 16 -5 0
-10 -4 -10 -9z"/>
<path d="M2070 2665 c-10 -12 -10 -15 3 -15 19 0 31 16 18 24 -5 3 -14 -1 -21
-9z"/>
<path d="M1960 2159 c-105 -27 -305 -127 -397 -197 -80 -61 -170 -148 -162
-156 2 -2 25 -5 50 -7 45 -3 46 -2 119 75 41 43 86 84 100 91 14 8 41 28 60
45 46 40 219 126 295 145 103 26 176 15 219 -34 38 -43 32 -148 -16 -269 l-21
-54 26 -25 25 -26 26 82 c35 110 36 223 3 272 -51 78 -171 99 -327 58z"/>
<path d="M1655 1679 c-30 -17 -45 -40 -45 -69 0 -42 22 -61 90 -77 68 -15 90
-27 90 -49 0 -44 -93 -61 -130 -24 -11 11 -20 25 -20 30 0 6 -9 10 -20 10 -28
0 -26 -35 5 -65 21 -21 33 -25 88 -25 80 0 117 23 117 74 0 44 -28 68 -102 86
-69 18 -92 40 -66 66 31 31 118 15 118 -22 0 -8 9 -14 20 -14 26 0 26 30 2 60
-14 18 -31 24 -73 27 -30 2 -63 -2 -74 -8z"/>
<path d="M2225 1680 c-11 -4 -31 -20 -45 -35 -22 -23 -25 -35 -25 -102 0 -72
1 -76 33 -104 27 -24 41 -29 83 -29 27 0 62 6 78 14 41 22 70 96 36 96 -8 0
-21 -13 -30 -30 -27 -52 -82 -66 -128 -30 -48 38 -43 153 8 180 39 21 87 15
110 -14 21 -26 55 -35 55 -15 0 57 -104 99 -175 69z"/>
<path d="M780 1582 c0 -74 4 -103 16 -121 48 -68 202 -67 244 2 16 26 20 51
20 125 0 90 0 92 -24 92 -23 0 -24 -3 -28 -94 -5 -116 -17 -136 -87 -136 -25
0 -51 4 -57 8 -24 16 -34 55 -34 136 0 85 0 86 -25 86 -25 0 -25 0 -25 -98z"/>
<path d="M1870 1665 c0 -11 12 -15 50 -15 l50 0 0 -120 c0 -113 1 -120 20
-120 19 0 20 7 20 120 l0 120 50 0 c38 0 50 4 50 15 0 13 -20 15 -120 15 -100
0 -120 -2 -120 -15z"/>
<path d="M1081 1388 c-29 -75 -45 -161 -45 -243 -1 -78 2 -96 24 -134 76 -135
293 -112 585 62 39 23 75 46 81 52 7 5 43 37 80 70 74 63 154 150 154 165 0 5
-19 10 -42 12 -42 3 -44 1 -89 -57 -106 -137 -273 -266 -439 -340 -48 -21 -85
-29 -140 -32 -87 -5 -113 6 -148 57 -22 32 -23 43 -19 120 2 52 14 114 29 162
l25 76 -23 29 -22 28 -11 -27z"/>
<path d="M630 2196 c-25 -47 12 -74 56 -42 19 14 19 15 -5 40 -30 32 -34 32
-51 2z"/>
<path d="M2757 1564 c-8 -8 3 -34 14 -34 11 0 12 27 0 34 -4 3 -11 3 -14 0z"/>
<path d="M274 1599 c-9 -15 5 -26 44 -34 35 -7 37 -4 22 26 -12 21 -54 26 -66
8z"/>
<path d="M1482 338 c-12 -12 -17 -38 -7 -38 3 0 14 6 25 13 17 10 22 9 31 -3
8 -12 9 -10 7 10 -3 28 -35 39 -56 18z"/>
<path d="M1900 249 c0 -20 21 -49 35 -49 20 0 57 38 50 50 -9 15 -25 12 -25
-5 0 -8 -7 -15 -15 -15 -9 0 -18 7 -21 15 -7 17 -24 20 -24 4z"/>
</g>
</svg>
