<?xml version="1.0" standalone="no"?>
<!DOCTYPE svg PUBLIC "-//W3C//DTD SVG 20010904//EN"
 "http://www.w3.org/TR/2001/REC-SVG-20010904/DTD/svg10.dtd">
<svg version="1.0" xmlns="http://www.w3.org/2000/svg"
 width="225.000000pt" height="225.000000pt" viewBox="0 0 225.000000 225.000000"
 preserveAspectRatio="xMidYMid meet">

<g transform="translate(0.000000,225.000000) scale(0.100000,-0.100000)"
fill="#000000" stroke="none">
<path d="M988 2240 c-348 -41 -671 -258 -846 -570 -199 -355 -182 -821 44
-1162 60 -91 186 -223 274 -288 372 -275 886 -290 1276 -35 525 342 668 1042
319 1565 -232 349 -646 539 -1067 490z m404 -73 c377 -98 673 -394 775 -775
24 -87 27 -115 27 -267 0 -152 -3 -180 -27 -267 -102 -380 -395 -673 -775
-775 -86 -24 -116 -26 -267 -27 -154 0 -180 3 -270 27 -215 58 -427 195 -565
365 -86 107 -170 271 -207 407 -25 91 -28 115 -28 270 0 155 3 179 28 270 113
411 438 711 854 790 119 22 331 14 455 -18z"/>
<path d="M910 2141 c-203 -44 -363 -132 -516 -285 -156 -156 -242 -314 -286
-526 -29 -137 -21 -357 16 -483 56 -189 144 -334 283 -468 200 -193 438 -289
718 -289 291 0 525 98 731 304 207 208 304 441 304 731 0 289 -98 524 -304
731 -156 155 -315 242 -521 285 -118 25 -308 24 -425 0z m346 -83 c-17 -63
-18 -105 -2 -111 30 -12 45 4 57 59 7 31 18 54 25 54 21 0 22 -12 5 -75 -18
-65 -43 -84 -94 -71 -42 10 -51 39 -37 107 10 48 16 59 33 59 15 0 18 -5 13
-22z m-246 -2 c0 -9 -12 -16 -32 -18 -22 -2 -34 -9 -36 -21 -3 -16 1 -17 32
-11 28 5 36 3 36 -9 0 -8 -13 -17 -30 -20 -46 -10 -40 -39 7 -35 57 5 52 -18
-8 -31 -29 -6 -53 -10 -54 -9 -3 4 -25 131 -25 146 0 11 26 18 78 21 22 1 32
-4 32 -13z m-179 -64 l-19 -49 46 -22 c41 -20 44 -24 28 -33 -14 -8 -28 -6
-54 6 -39 19 -48 16 -33 -12 11 -21 6 -32 -15 -32 -10 0 -64 120 -64 143 0 20
37 4 46 -20 l11 -28 17 40 c16 37 31 54 48 55 4 0 -1 -22 -11 -48z m604 26 c3
-13 9 -41 14 -63 l9 -40 17 43 c16 38 33 51 47 36 9 -8 -49 -139 -61 -138 -6
1 -15 2 -20 3 -4 0 -14 29 -21 64 l-13 62 -20 -47 c-11 -27 -23 -48 -28 -48
-19 0 -18 23 7 84 19 49 31 66 45 66 11 0 21 -9 24 -22z m159 -57 c7 -10 -64
-141 -76 -141 -22 0 -16 33 17 89 35 59 48 71 59 52z m50 -29 c3 -5 -1 -30 -9
-57 -21 -68 -20 -69 29 -35 47 32 61 36 71 20 6 -10 -111 -89 -133 -90 -23 0
-24 27 -2 99 19 66 31 83 44 63z m-954 -49 c49 -32 67 -49 58 -54 -7 -5 -21
-6 -30 -3 -23 7 -68 -24 -68 -46 0 -10 -6 -20 -12 -23 -18 -5 -51 142 -36 160
6 7 12 13 14 13 2 0 36 -21 74 -47z m666 -90 c247 -92 415 -298 454 -557 44
-294 -121 -595 -395 -721 -391 -181 -849 36 -962 455 -27 103 -23 273 10 375
77 236 252 400 502 471 35 10 88 13 180 10 115 -3 140 -7 211 -33z m452 -2
c38 -48 24 -67 -19 -26 -25 25 -29 26 -35 11 -4 -10 1 -25 11 -36 10 -11 14
-24 9 -31 -5 -9 -14 -4 -29 15 -19 24 -23 25 -35 11 -11 -13 -9 -19 10 -40 39
-41 13 -42 -29 -1 l-40 39 57 48 c31 27 60 49 63 49 3 0 20 -18 37 -39z
m-1259 -71 c4 0 16 9 26 20 13 15 22 17 29 10 8 -8 -1 -21 -29 -45 l-40 -34
-52 57 c-40 44 -49 60 -40 71 9 10 20 4 55 -33 24 -25 47 -46 51 -46z m-126
24 c3 -4 1 -16 -4 -27 -10 -17 -5 -25 32 -57 31 -27 41 -41 36 -54 -6 -16 -14
-12 -58 25 -49 41 -52 42 -65 24 -11 -14 -17 -16 -26 -7 -8 8 -2 22 26 57 37
44 47 51 59 39z m1472 -61 c14 -21 25 -43 25 -49 0 -19 -39 -47 -59 -41 -13 3
-22 -3 -30 -19 -6 -13 -15 -24 -20 -24 -19 0 -21 19 -4 48 21 37 12 50 -21 29
-20 -13 -26 -14 -35 -3 -8 10 3 22 47 53 31 23 60 42 64 42 4 1 19 -16 33 -36z
m-1547 -82 c2 -7 -5 -15 -16 -18 -24 -6 -36 -29 -21 -39 6 -3 21 3 33 15 28
26 58 27 81 1 15 -17 16 -24 6 -48 -13 -30 -47 -52 -68 -45 -21 7 -15 23 12
33 24 9 32 29 19 43 -4 3 -18 -3 -32 -13 -13 -11 -34 -20 -46 -20 -50 0 -62
56 -19 90 28 22 44 22 51 1z m1635 -53 c17 -23 19 -31 9 -53 -15 -32 -34 -23
-30 13 2 19 -2 27 -16 30 -17 4 -18 0 -13 -33 5 -28 1 -41 -14 -56 -25 -25
-35 -24 -64 6 -28 27 -31 52 -12 80 16 20 33 5 23 -20 -8 -21 3 -45 20 -45 10
0 14 13 14 45 0 68 44 85 83 33z m-1723 -82 c0 -8 -4 -26 -9 -39 -8 -20 -6
-27 5 -31 10 -4 18 4 26 24 12 36 44 43 34 8 -12 -39 -11 -51 2 -55 8 -3 18 8
25 26 14 38 42 43 33 6 -11 -44 -25 -75 -34 -75 -9 0 -58 16 -114 38 l-27 11
17 50 c15 47 42 70 42 37z m1780 -41 c0 -8 -17 -19 -42 -25 -24 -6 -57 -15
-75 -20 -17 -4 -34 -5 -37 -2 -18 17 1 32 57 45 82 19 97 20 97 2z m19 -101
c6 -31 8 -60 5 -65 -10 -16 -24 -9 -24 11 0 23 -21 25 -85 10 -28 -6 -42 -6
-47 3 -11 18 -2 24 60 36 55 11 59 13 54 36 -3 18 0 25 10 25 10 0 19 -18 27
-56z m-1721 -51 c-2 -10 -20 -27 -41 -38 -20 -11 -37 -22 -37 -25 0 -3 16 -14
35 -25 26 -13 35 -24 33 -39 -3 -19 -10 -21 -73 -21 -58 0 -70 3 -73 18 -3 14
4 17 45 18 l48 0 -32 16 c-18 9 -33 24 -33 33 0 9 15 24 33 33 l32 16 -47 0
c-36 1 -48 5 -48 16 0 12 16 15 81 15 71 0 80 -2 77 -17z m1742 -48 c0 -8 -13
-21 -30 -30 -37 -19 -37 -26 0 -47 17 -9 30 -24 30 -34 0 -14 -5 -13 -37 7
-21 12 -56 25 -78 28 -27 4 -41 12 -43 24 -3 14 4 17 33 17 22 0 50 10 73 25
42 29 52 31 52 10z m-1640 -483 c0 -5 20 -35 45 -66 43 -56 56 -86 35 -86 -5
0 -16 14 -25 30 -9 17 -18 30 -21 30 -3 0 -2 -5 1 -10 4 -6 1 -18 -6 -26 -10
-13 -9 -21 5 -45 27 -45 15 -63 -38 -56 -25 4 -47 2 -54 -5 -7 -7 -15 -1 -27
23 -10 19 -35 55 -57 81 -34 42 -38 50 -27 70 15 30 40 58 51 58 15 0 8 -26
-12 -50 -13 -15 -17 -27 -11 -33 12 -12 41 9 41 29 0 7 8 12 18 12 9 0 25 3
35 7 19 8 24 -14 7 -31 -15 -15 22 -46 44 -38 25 10 19 40 -15 68 -17 14 -27
30 -24 36 7 12 35 13 35 2z m1376 -17 c33 -25 33 -25 44 -5 10 19 50 29 50 13
-1 -14 -27 -43 -33 -37 -6 6 -30 -36 -41 -73 -5 -14 -3 -23 3 -23 6 0 11 11
11 25 0 16 6 25 16 25 8 0 12 -4 9 -10 -3 -5 -1 -10 5 -10 6 0 13 7 16 15 9
23 37 19 29 -4 -4 -13 4 -29 26 -50 33 -34 30 -49 -13 -72 -18 -10 -19 -9 -4
14 15 22 15 25 -9 47 l-25 23 -6 -31 c-4 -17 -13 -37 -22 -44 -13 -11 -14 -9
-8 15 5 20 3 27 -9 27 -8 0 -15 5 -15 10 0 6 -4 10 -9 10 -12 0 -24 -40 -22
-72 1 -16 -2 -28 -7 -28 -15 0 -21 24 -16 59 4 26 2 31 -20 37 -27 6 -33 18
-17 29 5 3 12 1 16 -5 3 -5 14 -10 23 -10 9 1 -4 11 -30 23 -51 24 -64 42 -24
35 14 -3 31 -1 38 3 10 7 9 9 -4 9 -10 0 -20 -1 -23 -2 -5 -4 -34 34 -35 45 0
14 41 7 46 -8 4 -8 12 -15 19 -15 7 0 18 -7 25 -15 13 -16 30 -20 30 -7 0 4
-14 13 -30 20 -17 8 -28 18 -24 23 3 5 -2 12 -10 15 -17 6 -12 24 6 24 6 0 26
-11 44 -25z m-1030 -280 c11 -27 -1 -39 -19 -21 -9 10 -17 22 -17 27 0 15 30
10 36 -6z m58 -26 c-1 -16 13 -37 43 -65 l44 -42 -22 -16 c-19 -13 -20 -18 -9
-31 10 -12 10 -15 -4 -15 -25 0 -31 28 -11 50 10 11 14 20 9 20 -5 0 -18 -13
-27 -30 -25 -42 -67 -90 -79 -90 -6 0 -3 10 6 22 23 32 66 115 66 128 0 13
-31 13 -50 -1 -13 -9 -12 -10 3 -5 11 3 20 0 24 -10 14 -38 -78 -83 -103 -49
-11 15 -15 13 -34 -24 -20 -40 -33 -50 -44 -32 -9 13 73 101 88 95 8 -3 17 -1
21 5 3 7 -2 11 -14 11 -36 0 -23 27 16 37 26 6 39 15 41 28 6 36 12 47 25 42
6 -2 12 -15 11 -28z m554 -32 c3 -34 5 -37 25 -30 33 11 90 9 94 -3 2 -7 -14
-14 -38 -18 -61 -10 -77 -22 -89 -65 -11 -44 -59 -101 -84 -101 -22 0 -20 13
4 27 22 14 53 69 48 84 -2 6 -16 1 -31 -11 -17 -14 -34 -19 -47 -15 -31 10
-24 19 36 48 54 27 56 29 51 60 -3 18 -9 40 -13 50 -6 16 -3 18 17 15 20 -2
25 -10 27 -41z m-418 -19 c0 -6 -14 -56 -31 -112 -17 -55 -33 -107 -35 -115
-3 -11 -7 -11 -20 0 -8 7 -19 20 -24 30 -8 13 -6 16 8 12 14 -3 22 11 42 74
14 43 26 83 28 88 1 6 -8 11 -20 10 -35 0 -37 19 -3 26 34 6 55 1 55 -13z
m-263 -4 c3 -8 -1 -22 -9 -30 -12 -12 -14 -10 -16 16 -2 32 14 41 25 14z m806
-88 c9 -7 17 -21 17 -31 0 -22 -30 -15 -91 20 l-44 25 50 0 c28 -1 58 -7 68
-14z"/>
<path d="M634 1864 c3 -9 6 -20 6 -25 0 -6 9 -5 21 1 20 11 20 12 2 25 -24 19
-36 19 -29 -1z"/>
<path d="M981 1794 c-137 -29 -285 -120 -372 -228 -101 -125 -149 -262 -149
-426 0 -116 17 -188 72 -300 33 -69 57 -101 127 -170 137 -136 277 -194 466
-194 191 1 329 58 466 194 146 145 206 300 197 509 -4 85 -11 122 -35 186 -49
132 -116 225 -218 302 -161 123 -362 169 -554 127z m362 -199 c47 -8 122 -26
166 -40 l81 -26 -17 -42 c-9 -23 -19 -46 -24 -51 -4 -4 -37 2 -73 14 -211 70
-520 66 -719 -10 -28 -11 -52 -18 -53 -17 -2 1 -12 24 -23 50 l-20 47 33 14
c50 21 143 47 221 61 98 18 324 18 428 0z m-543 -498 c0 -195 3 -236 16 -255
19 -27 65 -52 97 -52 13 0 32 -9 41 -19 10 -11 31 -25 47 -31 16 -7 29 -17 29
-22 0 -21 -75 -40 -142 -36 -85 5 -140 41 -180 118 l-28 52 0 239 0 239 60 0
60 0 0 -233z m220 32 l0 -201 29 -29 c24 -24 38 -29 76 -29 38 0 52 5 76 29
l29 29 0 201 0 201 60 0 60 0 0 -202 c0 -176 -3 -208 -19 -243 -83 -178 -330
-178 -412 0 -16 35 -19 68 -19 243 l0 202 60 0 60 0 0 -201z m550 -27 c0 -125
-4 -242 -10 -261 -27 -94 -116 -161 -214 -161 -57 0 -126 21 -126 38 0 5 13
15 29 22 16 6 37 20 47 31 9 10 28 19 41 19 32 0 78 25 97 52 13 19 16 60 16
255 l0 233 60 0 60 0 0 -228z"/>
<path d="M1847 1667 c-18 -12 -17 -13 2 -31 31 -28 53 -7 28 27 -10 15 -15 16
-30 4z"/>
<path d="M335 620 c-12 -19 5 -30 30 -18 13 6 22 15 19 19 -7 12 -41 11 -49
-1z"/>
<path d="M383 574 c-25 -11 -12 -24 23 -24 24 0 34 4 32 13 -5 13 -35 19 -55
11z"/>
<path d="M1787 629 c7 -7 15 -10 18 -7 3 3 -2 9 -12 12 -14 6 -15 5 -6 -5z"/>
<path d="M1860 613 c0 -4 5 -15 10 -23 8 -13 10 -13 10 2 0 9 -4 20 -10 23 -5
3 -10 3 -10 -2z"/>
<path d="M760 300 c0 -13 11 -13 30 0 12 8 11 10 -7 10 -13 0 -23 -4 -23 -10z"/>
</g>
</svg>
