<?xml version="1.0" encoding="UTF-8"?>
<!DOCTYPE svg PUBLIC "-//W3C//DTD SVG 1.1//EN" "http://www.w3.org/Graphics/SVG/1.1/DTD/svg11.dtd">
<svg xmlns="http://www.w3.org/2000/svg" version="1.1" width="960px" height="685px" style="shape-rendering:geometricPrecision; text-rendering:geometricPrecision; image-rendering:optimizeQuality; fill-rule:evenodd; clip-rule:evenodd" xmlns:xlink="http://www.w3.org/1999/xlink">
<g><path style="opacity:1" fill="#f9f9f9" d="M -0.5,-0.5 C 319.5,-0.5 639.5,-0.5 959.5,-0.5C 959.5,227.833 959.5,456.167 959.5,684.5C 639.5,684.5 319.5,684.5 -0.5,684.5C -0.5,456.167 -0.5,227.833 -0.5,-0.5 Z"/></g>
<g><path style="opacity:1" fill="#090c07" d="M 714.5,427.5 C 712.983,427.489 711.816,426.823 711,425.5C 710.617,426.056 710.117,426.389 709.5,426.5C 707.218,425.61 704.885,425.444 702.5,426C 682.149,435.173 661.149,442.007 639.5,446.5C 599.601,450.301 559.935,448.634 520.5,441.5C 489.354,434.731 458.021,428.898 426.5,424C 417.833,423.333 409.167,423.333 400.5,424C 380.125,428.36 370.292,440.86 371,461.5C 373.18,466.853 377.013,470.187 382.5,471.5C 385.215,472.886 388.215,473.553 391.5,473.5C 400.819,472.479 410.152,472.312 419.5,473C 431.844,474.131 444.177,475.298 456.5,476.5C 457.919,477.451 459.585,477.784 461.5,477.5C 477.921,481.433 494.588,484.766 511.5,487.5C 511.833,487.5 512.167,487.5 512.5,487.5C 529.811,491.364 547.477,493.531 565.5,494C 599.502,495.65 633.502,495.817 667.5,494.5C 669.92,494.708 672.253,494.374 674.5,493.5C 675.298,493.957 675.631,494.624 675.5,495.5C 668.308,497.421 660.975,498.587 653.5,499C 623.402,524.375 588.736,540.042 549.5,546C 468.964,554.071 389.298,548.737 310.5,530C 289.447,524.766 269.78,516.432 251.5,505C 240.288,494.419 232.788,481.586 229,466.5C 218.012,426.842 219.012,387.508 232,348.5C 239.716,320.409 251.716,294.409 268,270.5C 277.392,260.053 288.892,253.053 302.5,249.5C 310.222,223.718 322.389,200.385 339,179.5C 376.114,138.264 421.281,125.43 474.5,141C 483.124,144.644 491.124,149.31 498.5,155C 502.015,158.682 505.682,162.182 509.5,165.5C 533.031,151.767 558.364,144.1 585.5,142.5C 616.733,141.357 638.566,155.023 651,183.5C 654.353,191.892 656.686,200.558 658,209.5C 674.734,214.518 690.234,222.018 704.5,232C 706.066,234.93 706.9,238.097 707,241.5C 712.123,243.394 716.79,246.061 721,249.5C 723.782,253.74 725.115,258.407 725,263.5C 728.362,265.35 731.362,267.683 734,270.5C 734.725,273.377 734.225,276.043 732.5,278.5C 738.516,285.448 739.016,292.781 734,300.5C 730.985,303.683 727.818,306.683 724.5,309.5C 726.956,317.085 724.289,321.919 716.5,324C 712.877,325.156 709.211,326.156 705.5,327C 697.183,341.308 685.183,351.308 669.5,357C 684.614,370.104 695.781,385.937 703,404.5C 704.239,410.435 704.739,416.435 704.5,422.5C 708.946,422.056 712.279,423.723 714.5,427.5 Z"/></g>
<g><path style="opacity:1" fill="#649548" d="M 368.5,286.5 C 367.214,283.112 368.547,281.112 372.5,280.5C 379.206,280.757 385.872,280.424 392.5,279.5C 394.104,279.939 395.604,280.606 397,281.5C 398.285,281.05 399.452,280.383 400.5,279.5C 401.593,281.349 402.926,283.016 404.5,284.5C 403.83,287.18 401.83,289.18 398.5,290.5C 388.503,289.167 378.503,287.833 368.5,286.5 Z"/></g>
<g><path style="opacity:1" fill="#6a8e55" d="M 432.5,247.5 C 429.515,249.517 427.182,252.184 425.5,255.5C 427.453,256.69 429.287,258.024 431,259.5C 432.264,257.393 434.097,256.393 436.5,256.5C 434.353,258.47 432.02,260.303 429.5,262C 410.784,270.853 391.118,275.686 370.5,276.5C 370.611,275.883 370.944,275.383 371.5,275C 379.898,274.46 388.232,273.46 396.5,272C 396.167,271.667 395.833,271.333 395.5,271C 404.446,269.675 413.113,267.342 421.5,264C 426.531,262.013 426.698,259.513 422,256.5C 419.057,258.223 415.89,259.223 412.5,259.5C 419.424,255.906 426.09,251.906 432.5,247.5 Z"/></g>
<g><path style="opacity:1" fill="#6d8a5a" d="M 295.5,286.5 C 296.085,276.322 297.752,266.322 300.5,256.5C 297.884,255.614 295.551,256.28 293.5,258.5C 291.604,259.466 289.604,259.799 287.5,259.5C 292.029,255.99 297.029,254.323 302.5,254.5C 299.509,265.147 297.176,275.814 295.5,286.5 Z"/></g>
<g><path style="opacity:1" fill="#689150" d="M 541.5,252.5 C 537.333,251.9 533.167,251.234 529,250.5C 526.246,252.019 524.079,251.519 522.5,249C 519.5,248.333 516.5,248.333 513.5,249C 512.643,249.689 511.977,250.522 511.5,251.5C 514.112,252.454 516.779,252.454 519.5,251.5C 520.5,251.833 521.5,252.167 522.5,252.5C 522.291,253.086 521.957,253.586 521.5,254C 534.189,256.453 546.522,259.953 558.5,264.5C 559.086,264.291 559.586,263.957 560,263.5C 562.478,265.639 564.978,267.639 567.5,269.5C 537.815,256.663 506.815,251.163 474.5,253C 450.677,259.58 428.677,269.913 408.5,284C 405.651,287.016 402.651,289.85 399.5,292.5C 391.59,289.328 383.423,288.661 375,290.5C 372.076,290.293 369.91,288.96 368.5,286.5C 378.503,287.833 388.503,289.167 398.5,290.5C 401.83,289.18 403.83,287.18 404.5,284.5C 402.926,283.016 401.593,281.349 400.5,279.5C 399.452,280.383 398.285,281.05 397,281.5C 395.604,280.606 394.104,279.939 392.5,279.5C 385.872,280.424 379.206,280.757 372.5,280.5C 392.762,278.349 412.429,273.182 431.5,265C 442.914,255.742 455.914,249.742 470.5,247C 494.723,243.69 518.389,245.523 541.5,252.5 Z"/></g>
<g><path style="opacity:1" fill="#649449" d="M 541.5,252.5 C 542.167,252.5 542.833,252.5 543.5,252.5C 547.063,255.098 550.897,257.432 555,259.5C 557.718,258.987 560.551,258.987 563.5,259.5C 563.67,260.822 563.337,261.989 562.5,263C 563.5,263.167 564.5,263.333 565.5,263.5C 572.707,261.785 579.707,259.619 586.5,257C 591.835,256.265 596.668,257.432 601,260.5C 601.492,261.549 601.326,262.549 600.5,263.5C 595.998,265.422 591.498,267.422 587,269.5C 586.228,269.355 585.561,269.022 585,268.5C 584.616,270.197 584.782,271.863 585.5,273.5C 581.896,276.602 578.396,279.935 575,283.5C 574.804,277.433 572.304,272.766 567.5,269.5C 564.978,267.639 562.478,265.639 560,263.5C 559.586,263.957 559.086,264.291 558.5,264.5C 546.522,259.953 534.189,256.453 521.5,254C 521.957,253.586 522.291,253.086 522.5,252.5C 521.5,252.167 520.5,251.833 519.5,251.5C 516.779,252.454 514.112,252.454 511.5,251.5C 511.977,250.522 512.643,249.689 513.5,249C 516.5,248.333 519.5,248.333 522.5,249C 524.079,251.519 526.246,252.019 529,250.5C 533.167,251.234 537.333,251.9 541.5,252.5 Z"/></g>
<g><path style="opacity:1" fill="#f6f6f6" d="M 637.5,257.5 C 669.787,255.905 699.787,263.405 727.5,280C 734.858,286.32 735.358,293.153 729,300.5C 727.127,302.709 724.96,304.542 722.5,306C 679.96,319.455 636.626,323.121 592.5,317C 584.872,315.124 577.538,312.457 570.5,309C 569.784,297.176 574.117,287.509 583.5,280C 599.824,268.334 617.824,260.834 637.5,257.5 Z"/></g>
<g><path style="opacity:1" fill="#030303" d="M 636.5,260.5 C 647.304,259.203 657.304,261.369 666.5,267C 678.602,278.488 680.769,291.655 673,306.5C 667.716,313.059 660.883,316.893 652.5,318C 620.246,322.09 608.413,308.59 617,277.5C 621.029,268.916 627.529,263.249 636.5,260.5 Z"/></g>
<g><path style="opacity:1" fill="#e8e8e8" d="M 634.5,286.5 C 636.604,286.201 638.604,286.534 640.5,287.5C 641.385,291.443 639.719,292.943 635.5,292C 633.365,290.444 633.032,288.611 634.5,286.5 Z"/></g>
<g><path style="opacity:1" fill="#f0f0f0" d="M 651.5,276.5 C 658.327,275.174 661.494,277.84 661,284.5C 657,288.5 653,288.5 649,284.5C 647.837,281.029 648.67,278.362 651.5,276.5 Z"/></g>
<g><path style="opacity:1" fill="#e1e1e2" d="M 634.5,267.5 C 641.358,268.127 642.691,270.96 638.5,276C 631.4,275.752 630.067,272.919 634.5,267.5 Z"/></g>
<g><path style="opacity:1" fill="#f6f6f6" d="M 477.5,255.5 C 508.943,254.694 538.943,260.861 567.5,274C 569.917,276.479 570.917,279.479 570.5,283C 570.161,291.19 568.327,299.024 565,306.5C 530.805,324.547 494.638,329.714 456.5,322C 437.044,317.355 419.544,308.855 404,296.5C 403.333,295.5 403.333,294.5 404,293.5C 414.027,283.565 425.527,275.732 438.5,270C 451.185,263.976 464.185,259.143 477.5,255.5 Z"/></g>
<g><path style="opacity:1" fill="#020202" d="M 471.5,258.5 C 492.769,255.376 507.269,263.71 515,283.5C 517.87,302.6 510.036,314.767 491.5,320C 479.458,322.744 467.792,321.744 456.5,317C 448.637,311.442 444.97,303.775 445.5,294C 445.731,275.649 454.397,263.815 471.5,258.5 Z"/></g>
<g><path style="opacity:1" fill="#e1e1e1" d="M 469.5,285.5 C 474.541,285.353 476.207,287.519 474.5,292C 472.105,294.145 469.938,293.978 468,291.5C 467.252,289.16 467.752,287.16 469.5,285.5 Z"/></g>
<g><path style="opacity:1" fill="#eeeeee" d="M 487.5,275.5 C 497.397,275.182 499.73,279.015 494.5,287C 486.842,289.343 483.342,286.51 484,278.5C 485.145,277.364 486.312,276.364 487.5,275.5 Z"/></g>
<g><path style="opacity:1" fill="#ededed" d="M 467.5,266.5 C 471.756,265.454 474.422,266.954 475.5,271C 473.318,275.768 470.152,276.601 466,273.5C 465.167,270.829 465.667,268.496 467.5,266.5 Z"/></g>
<g><path style="opacity:1" fill="#678d50" d="M 621.5,245.5 C 622.091,244.849 622.757,244.182 623.5,243.5C 643.943,241.906 664.276,242.406 684.5,245C 684.167,245.333 683.833,245.667 683.5,246C 686.063,247.079 688.729,247.579 691.5,247.5C 691.48,245.857 692.147,244.524 693.5,243.5C 670.613,236.705 647.279,234.705 623.5,237.5C 655.119,232.619 685.786,236.452 715.5,249C 719.855,251.861 721.189,255.694 719.5,260.5C 702.801,252.075 685.135,246.908 666.5,245C 651.479,244.251 636.479,244.417 621.5,245.5 Z"/></g>
<g><path style="opacity:1" fill="#68914f" d="M 588.5,244.5 C 587.942,245.79 586.942,246.623 585.5,247C 578.478,248.679 572.145,251.679 566.5,256C 568.976,256.68 570.809,255.847 572,253.5C 572.561,254.022 573.228,254.355 574,254.5C 579.144,252.922 584.311,251.422 589.5,250C 589.167,249.667 588.833,249.333 588.5,249C 596.977,247.075 605.644,245.908 614.5,245.5C 598.258,248.73 582.258,253.23 566.5,259C 565.269,260.183 565.269,261.349 566.5,262.5C 584.145,255.172 602.478,250.839 621.5,249.5C 653.845,245.749 684.845,250.249 714.5,263C 715.126,263.75 715.626,264.584 716,265.5C 717.011,264.663 718.178,264.33 719.5,264.5C 723.39,266.219 726.89,268.552 730,271.5C 730.884,273.641 730.384,275.307 728.5,276.5C 701.161,259.749 671.495,252.249 639.5,254C 619.949,256.459 601.949,262.959 585.5,273.5C 584.782,271.863 584.616,270.197 585,268.5C 585.561,269.022 586.228,269.355 587,269.5C 591.498,267.422 595.998,265.422 600.5,263.5C 601.326,262.549 601.492,261.549 601,260.5C 596.668,257.432 591.835,256.265 586.5,257C 579.707,259.619 572.707,261.785 565.5,263.5C 564.5,263.333 563.5,263.167 562.5,263C 563.337,261.989 563.67,260.822 563.5,259.5C 560.551,258.987 557.718,258.987 555,259.5C 550.897,257.432 547.063,255.098 543.5,252.5C 548.944,254.258 554.444,255.925 560,257.5C 568.393,251.228 577.893,246.894 588.5,244.5 Z"/></g>
<g><path style="opacity:1" fill="#6c8e59" d="M 719.5,264.5 C 718.178,264.33 717.011,264.663 716,265.5C 715.626,264.584 715.126,263.75 714.5,263C 684.845,250.249 653.845,245.749 621.5,249.5C 646.323,245.829 670.99,247.329 695.5,254C 703.941,256.726 711.941,260.226 719.5,264.5 Z"/></g>
<g><path style="opacity:1" fill="#659449" d="M 621.5,245.5 C 619.167,245.5 616.833,245.5 614.5,245.5C 605.644,245.908 596.977,247.075 588.5,249C 588.833,249.333 589.167,249.667 589.5,250C 584.311,251.422 579.144,252.922 574,254.5C 573.228,254.355 572.561,254.022 572,253.5C 570.809,255.847 568.976,256.68 566.5,256C 572.145,251.679 578.478,248.679 585.5,247C 586.942,246.623 587.942,245.79 588.5,244.5C 599.859,240.773 611.525,238.439 623.5,237.5C 647.279,234.705 670.613,236.705 693.5,243.5C 692.147,244.524 691.48,245.857 691.5,247.5C 688.729,247.579 686.063,247.079 683.5,246C 683.833,245.667 684.167,245.333 684.5,245C 664.276,242.406 643.943,241.906 623.5,243.5C 622.757,244.182 622.091,244.849 621.5,245.5 Z"/></g>
<g><path style="opacity:1" fill="#66944b" d="M 532.5,233.5 C 541.851,235.173 550.851,238.007 559.5,242C 563.468,246.249 563.468,250.415 559.5,254.5C 527.26,241.675 494.26,238.841 460.5,246C 452.152,248.833 444.152,252.333 436.5,256.5C 434.097,256.393 432.264,257.393 431,259.5C 429.287,258.024 427.453,256.69 425.5,255.5C 427.182,252.184 429.515,249.517 432.5,247.5C 439.178,241.66 446.845,237.66 455.5,235.5C 461.615,235.46 467.615,234.626 473.5,233C 493.174,232.394 512.841,232.561 532.5,233.5 Z"/></g>
<g><path style="opacity:1" fill="#6c8f59" d="M 532.5,233.5 C 512.841,232.561 493.174,232.394 473.5,233C 467.615,234.626 461.615,235.46 455.5,235.5C 470.116,231.67 485.116,230.003 500.5,230.5C 506.833,230.667 513.167,230.833 519.5,231C 524.076,231.272 528.409,232.105 532.5,233.5 Z"/></g>
<g><path style="opacity:1" fill="#699151" d="M 671.5,218.5 C 682.067,222.566 692.067,227.732 701.5,234C 704.119,236.257 704.119,238.423 701.5,240.5C 677.724,233.125 653.39,230.459 628.5,232.5C 628.918,231.778 629.584,231.278 630.5,231C 636.167,230.833 641.833,230.667 647.5,230.5C 661.624,231.1 675.624,232.267 689.5,234C 688.167,233.667 686.833,233.333 685.5,233C 685.833,232.667 686.167,232.333 686.5,232C 685.167,230 683.833,228 682.5,226C 679.209,224.403 675.875,222.903 672.5,221.5C 670.406,224.031 667.739,224.864 664.5,224C 669.833,223.333 669.833,222.667 664.5,222C 666.5,221.667 668.5,221.333 670.5,221C 671.252,220.329 671.586,219.496 671.5,218.5 Z"/></g>
<g><path style="opacity:1" fill="#6a8c58" d="M 520.5,217.5 C 525.688,220.608 530.354,224.441 534.5,229C 523.575,228.001 512.575,227.501 501.5,227.5C 488.038,227.108 474.704,228.108 461.5,230.5C 463.476,228.989 465.809,228.156 468.5,228C 489.15,225.029 509.816,224.696 530.5,227C 527.32,223.804 523.653,221.471 519.5,220C 520.252,219.329 520.586,218.496 520.5,217.5 Z"/></g>
<g><path style="opacity:1" fill="#6c8c58" d="M 519.5,190.5 C 522.886,196.666 524.886,203.333 525.5,210.5C 523.418,210.472 521.584,211.139 520,212.5C 515.678,209.601 511.511,206.601 507.5,203.5C 509.679,205.164 511.512,204.83 513,202.5C 513.333,203.833 513.667,205.167 514,206.5C 516.165,207.583 518.165,208.916 520,210.5C 521.44,209.852 522.94,209.519 524.5,209.5C 522.959,203.127 521.292,196.793 519.5,190.5 Z"/></g>
<g><path style="opacity:1" fill="#64954a" d="M 568.5,207.5 C 572.5,207.5 576.5,207.5 580.5,207.5C 600.923,206.965 621.257,207.965 641.5,210.5C 651.986,211.79 661.986,214.456 671.5,218.5C 671.586,219.496 671.252,220.329 670.5,221C 668.5,221.333 666.5,221.667 664.5,222C 669.833,222.667 669.833,223.333 664.5,224C 667.739,224.864 670.406,224.031 672.5,221.5C 675.875,222.903 679.209,224.403 682.5,226C 683.833,228 685.167,230 686.5,232C 686.167,232.333 685.833,232.667 685.5,233C 686.833,233.333 688.167,233.667 689.5,234C 675.624,232.267 661.624,231.1 647.5,230.5C 641.833,230.667 636.167,230.833 630.5,231C 629.584,231.278 628.918,231.778 628.5,232.5C 606.97,235.279 585.97,240.612 565.5,248.5C 565.45,243.936 563.45,240.436 559.5,238C 553.421,235.863 547.421,233.529 541.5,231C 535.876,225.197 529.876,219.864 523.5,215C 538.151,210.501 553.151,208.001 568.5,207.5 Z"/></g>
<g><path style="opacity:1" fill="#74975f" d="M 580.5,207.5 C 590.319,206.506 600.319,206.173 610.5,206.5C 621.137,206.531 631.471,207.865 641.5,210.5C 621.257,207.965 600.923,206.965 580.5,207.5 Z"/></g>
<g><path style="opacity:1" fill="#64954a" d="M 647.5,207.5 C 647.209,206.351 646.376,205.684 645,205.5C 642.176,204.946 639.343,204.446 636.5,204C 634.776,203.552 634.109,202.718 634.5,201.5C 631.89,202.116 629.223,202.449 626.5,202.5C 605.264,199.837 583.931,200.004 562.5,203C 561.944,203.383 561.611,203.883 561.5,204.5C 551.361,205.301 541.361,206.968 531.5,209.5C 530.833,209.167 530.167,208.833 529.5,208.5C 525.907,194.319 519.907,181.319 511.5,169.5C 534.499,155.002 559.665,147.002 587,145.5C 623.178,146.668 645.178,165.001 653,200.5C 654.057,203.549 654.224,206.549 653.5,209.5C 651.55,208.628 649.55,207.961 647.5,207.5 Z"/></g>
<g><path style="opacity:1" fill="#49643a" d="M 610.5,206.5 C 600.319,206.173 590.319,206.506 580.5,207.5C 576.5,207.5 572.5,207.5 568.5,207.5C 577.124,206.07 585.957,205.403 595,205.5C 600.344,205.501 605.511,205.834 610.5,206.5 Z"/></g>
<g><path style="opacity:1" fill="#6c8f57" d="M 647.5,207.5 C 618.995,202.191 590.329,201.191 561.5,204.5C 561.611,203.883 561.944,203.383 562.5,203C 583.931,200.004 605.264,199.837 626.5,202.5C 629.223,202.449 631.89,202.116 634.5,201.5C 634.109,202.718 634.776,203.552 636.5,204C 639.343,204.446 642.176,204.946 645,205.5C 646.376,205.684 647.209,206.351 647.5,207.5 Z"/></g>
<g><path style="opacity:1" fill="#709158" d="M 462.5,141.5 C 452.522,140.354 442.522,139.354 432.5,138.5C 426.842,139.033 421.175,139.366 415.5,139.5C 416.609,138.71 417.942,138.21 419.5,138C 428.833,137.333 438.167,137.333 447.5,138C 452.781,138.538 457.781,139.705 462.5,141.5 Z"/></g>
<g><path style="opacity:1" fill="#64954a" d="M 462.5,141.5 C 489.785,148.113 508.785,164.447 519.5,190.5C 521.292,196.793 522.959,203.127 524.5,209.5C 522.94,209.519 521.44,209.852 520,210.5C 518.165,208.916 516.165,207.583 514,206.5C 513.667,205.167 513.333,203.833 513,202.5C 511.512,204.83 509.679,205.164 507.5,203.5C 505.973,203.573 504.973,202.906 504.5,201.5C 498.487,197.492 492.154,193.992 485.5,191C 481.576,190.74 477.909,189.74 474.5,188C 471.183,187.502 467.85,187.335 464.5,187.5C 431.941,183.472 402.607,191.306 376.5,211C 374.963,212.11 374.297,213.61 374.5,215.5C 378.903,213.79 382.903,211.29 386.5,208C 391.243,204.962 396.243,202.462 401.5,200.5C 413.235,196.696 425.235,193.863 437.5,192C 447.18,191.421 456.847,191.588 466.5,192.5C 486.848,196.011 504.848,204.344 520.5,217.5C 520.586,218.496 520.252,219.329 519.5,220C 523.653,221.471 527.32,223.804 530.5,227C 509.816,224.696 489.15,225.029 468.5,228C 465.809,228.156 463.476,228.989 461.5,230.5C 454.455,231.477 447.788,233.643 441.5,237C 431.767,243.728 421.767,250.062 411.5,256C 401.748,259.751 391.748,262.584 381.5,264.5C 381.5,265.5 381.5,266.5 381.5,267.5C 392.048,265.65 402.382,262.984 412.5,259.5C 415.89,259.223 419.057,258.223 422,256.5C 426.698,259.513 426.531,262.013 421.5,264C 413.113,267.342 404.446,269.675 395.5,271C 395.833,271.333 396.167,271.667 396.5,272C 388.232,273.46 379.898,274.46 371.5,275C 370.944,275.383 370.611,275.883 370.5,276.5C 362.197,282.539 362.53,288.039 371.5,293C 379.167,293.333 386.833,293.667 394.5,294C 399.329,297.335 403.995,300.835 408.5,304.5C 408.75,305.922 409.583,306.922 411,307.5C 411.273,309.101 411.773,310.601 412.5,312C 412.167,312.333 411.833,312.667 411.5,313C 413.776,314.03 414.443,315.53 413.5,317.5C 411.391,316.35 409.391,315.016 407.5,313.5C 405.453,315.015 403.119,315.849 400.5,316C 399.253,317.494 399.253,318.994 400.5,320.5C 402.389,321.604 404.055,322.937 405.5,324.5C 404.092,325.243 402.759,326.077 401.5,327C 404.329,328.247 406.995,329.747 409.5,331.5C 410.215,330.377 411.381,329.377 413,328.5C 418.966,331.035 425.133,333.035 431.5,334.5C 443.925,338.118 456.592,340.452 469.5,341.5C 470.263,342.268 471.263,342.768 472.5,343C 488.167,343.667 503.833,343.667 519.5,343C 528.165,342.574 536.499,341.074 544.5,338.5C 551.732,336.719 558.399,333.552 564.5,329C 568.592,324.647 570.926,319.481 571.5,313.5C 589.676,321.142 608.676,324.809 628.5,324.5C 659.843,323.942 690.51,319.275 720.5,310.5C 723.128,312.915 723.128,315.415 720.5,318C 715.261,321.064 709.595,323.064 703.5,324C 695.106,339.361 682.439,349.194 665.5,353.5C 646.75,358.468 627.75,359.634 608.5,357C 602.642,355.079 596.642,353.913 590.5,353.5C 587.314,353.105 584.314,352.105 581.5,350.5C 579.646,351.176 579.313,352.176 580.5,353.5C 588.102,357.235 596.102,359.735 604.5,361C 608.257,366.105 613.09,369.605 619,371.5C 619.833,371.167 620.667,370.833 621.5,370.5C 618.061,368.266 614.728,365.766 611.5,363C 620.808,363.483 630.141,363.483 639.5,363C 648.156,361.223 656.822,359.89 665.5,359C 679.818,370.135 690.484,383.968 697.5,400.5C 698.66,407.783 699.327,415.117 699.5,422.5C 693.556,425.538 687.222,427.704 680.5,429C 678.336,430.491 676.336,431.991 674.5,433.5C 674.167,433.5 673.833,433.5 673.5,433.5C 669.317,435.076 665.317,434.743 661.5,432.5C 659.615,433.609 657.615,434.443 655.5,435C 654.167,436 654.167,437 655.5,438C 649.589,438.341 643.756,439.174 638,440.5C 637.228,440.355 636.561,440.022 636,439.5C 635.097,440.701 633.931,441.535 632.5,442C 621.588,442.201 610.754,443.035 600,444.5C 586.8,443.894 573.633,442.894 560.5,441.5C 560.167,440.5 559.5,439.833 558.5,439.5C 553.521,440.783 548.521,440.783 543.5,439.5C 543.192,438.692 542.692,438.025 542,437.5C 537.921,438.629 533.755,438.796 529.5,438C 525.886,437.055 522.219,436.388 518.5,436C 519.451,435.282 519.617,434.449 519,433.5C 515.928,433.297 512.762,433.631 509.5,434.5C 504.284,432.912 498.951,432.245 493.5,432.5C 479.317,430.621 465.317,427.788 451.5,424C 442.519,422.614 433.519,421.447 424.5,420.5C 424.389,419.883 424.056,419.383 423.5,419C 413.391,418.058 403.391,418.725 393.5,421C 388.362,423.571 383.028,425.571 377.5,427C 376.594,428.699 376.261,430.533 376.5,432.5C 367.474,442.931 365.307,454.598 370,467.5C 378.278,475.2 388.112,478.2 399.5,476.5C 411.88,476.589 424.214,477.422 436.5,479C 456.303,481.706 475.97,484.873 495.5,488.5C 509.008,490.605 522.341,492.938 535.5,495.5C 548.599,497.645 561.932,498.812 575.5,499C 598.164,499.5 620.831,499.667 643.5,499.5C 643.5,500.5 643.5,501.5 643.5,502.5C 616.252,523.259 585.586,536.259 551.5,541.5C 532.917,543.937 514.25,545.271 495.5,545.5C 455.983,544.141 416.65,541.808 377.5,538.5C 366.212,535.291 354.545,533.124 342.5,532C 329.41,528.057 316.077,525.224 302.5,523.5C 285.298,519.488 269.298,512.655 254.5,503C 242.354,492.545 235.021,479.378 232.5,463.5C 227.035,437.187 225.368,410.52 227.5,383.5C 233.238,350.119 244.072,318.453 260,288.5C 265.359,279.469 271.859,271.302 279.5,264C 282.059,262.223 284.726,260.723 287.5,259.5C 289.604,259.799 291.604,259.466 293.5,258.5C 295.551,256.28 297.884,255.614 300.5,256.5C 297.752,266.322 296.085,276.322 295.5,286.5C 295.5,287.5 295.5,288.5 295.5,289.5C 294.189,291.56 294.189,293.726 295.5,296C 297.888,296.865 299.388,296.032 300,293.5C 302.08,284.368 303.246,274.368 303.5,263.5C 310.981,225.027 328.981,192.527 357.5,166C 374.444,152.03 393.777,143.196 415.5,139.5C 421.175,139.366 426.842,139.033 432.5,138.5C 442.522,139.354 452.522,140.354 462.5,141.5 Z"/></g>
<g><path style="opacity:1" fill="#698b54" d="M 303.5,263.5 C 303.246,274.368 302.08,284.368 300,293.5C 299.388,296.032 297.888,296.865 295.5,296C 294.189,293.726 294.189,291.56 295.5,289.5C 295.5,291.167 295.5,292.833 295.5,294.5C 296.5,294.5 297.5,294.5 298.5,294.5C 299.292,283.896 300.959,273.563 303.5,263.5 Z"/></g>
<g><path style="opacity:1" fill="#688853" d="M 466.5,192.5 C 456.847,191.588 447.18,191.421 437.5,192C 425.235,193.863 413.235,196.696 401.5,200.5C 418.407,192.055 436.407,188.555 455.5,190C 459.465,190.108 463.132,190.941 466.5,192.5 Z"/></g>
<g><path style="opacity:1" fill="#6c8e59" d="M 464.5,187.5 C 467.85,187.335 471.183,187.502 474.5,188C 477.909,189.74 481.576,190.74 485.5,191C 492.154,193.992 498.487,197.492 504.5,201.5C 491.57,195.414 478.237,190.747 464.5,187.5 Z"/></g>
<g><path style="opacity:1" fill="#699251" d="M 408.5,304.5 C 443.092,326.641 480.759,333.975 521.5,326.5C 522.552,326.351 523.552,326.517 524.5,327C 517.705,327.989 511.038,329.489 504.5,331.5C 485.057,330.853 465.724,329.02 446.5,326C 443.15,323.792 439.65,323.292 436,324.5C 435.226,322.061 433.726,320.227 431.5,319C 427.777,319.075 424.11,318.908 420.5,318.5C 418.444,319.048 416.777,320.214 415.5,322C 417.655,321.029 419.822,320.529 422,320.5C 424.929,322.341 427.429,324.674 429.5,327.5C 431.766,328.314 434.1,328.814 436.5,329C 436.167,329.333 435.833,329.667 435.5,330C 438.025,330.424 440.025,331.59 441.5,333.5C 428.108,329.802 415.441,324.468 403.5,317.5C 402.068,317.733 401.568,318.4 402,319.5C 411.286,325.726 421.12,330.726 431.5,334.5C 425.133,333.035 418.966,331.035 413,328.5C 411.381,329.377 410.215,330.377 409.5,331.5C 406.995,329.747 404.329,328.247 401.5,327C 402.759,326.077 404.092,325.243 405.5,324.5C 404.055,322.937 402.389,321.604 400.5,320.5C 399.253,318.994 399.253,317.494 400.5,316C 403.119,315.849 405.453,315.015 407.5,313.5C 409.391,315.016 411.391,316.35 413.5,317.5C 414.443,315.53 413.776,314.03 411.5,313C 411.833,312.667 412.167,312.333 412.5,312C 411.773,310.601 411.273,309.101 411,307.5C 409.583,306.922 408.75,305.922 408.5,304.5 Z"/></g>
<g><path style="opacity:1" fill="#64934b" d="M 441.5,333.5 C 440.025,331.59 438.025,330.424 435.5,330C 435.833,329.667 436.167,329.333 436.5,329C 434.1,328.814 431.766,328.314 429.5,327.5C 427.429,324.674 424.929,322.341 422,320.5C 419.822,320.529 417.655,321.029 415.5,322C 416.777,320.214 418.444,319.048 420.5,318.5C 424.11,318.908 427.777,319.075 431.5,319C 433.726,320.227 435.226,322.061 436,324.5C 439.65,323.292 443.15,323.792 446.5,326C 465.724,329.02 485.057,330.853 504.5,331.5C 511.038,329.489 517.705,327.989 524.5,327C 523.552,326.517 522.552,326.351 521.5,326.5C 536.692,322.988 551.358,317.655 565.5,310.5C 568.189,315.401 567.689,320.068 564,324.5C 557.442,330.805 549.609,334.638 540.5,336C 507.304,341.345 474.304,340.512 441.5,333.5 Z"/></g>
<g><path style="opacity:1" fill="#708f5f" d="M 544.5,338.5 C 536.499,341.074 528.165,342.574 519.5,343C 503.833,343.667 488.167,343.667 472.5,343C 471.263,342.768 470.263,342.268 469.5,341.5C 494.621,343.345 519.621,342.345 544.5,338.5 Z"/></g>
<g><path style="opacity:1" fill="#70905a" d="M 590.5,353.5 C 596.642,353.913 602.642,355.079 608.5,357C 627.75,359.634 646.75,358.468 665.5,353.5C 660.843,355.753 655.843,357.253 650.5,358C 636.513,359.7 622.513,359.866 608.5,358.5C 602.167,357.605 596.167,355.939 590.5,353.5 Z"/></g>
<g><path style="opacity:1" fill="#050c03" d="M 520.5,356.5 C 507.109,362.517 493.442,367.517 479.5,371.5C 475.5,372.167 471.5,372.833 467.5,373.5C 467.36,371.876 468.027,370.71 469.5,370C 492.631,365.405 514.131,356.905 534,344.5C 534.5,344.833 535,345.167 535.5,345.5C 531.003,349.909 526.003,353.576 520.5,356.5 Z"/></g>
<g><path style="opacity:1" fill="#6c8f57" d="M 520.5,356.5 C 519.26,358.988 517.26,360.821 514.5,362C 505.224,364.99 495.891,367.99 486.5,371C 484.19,371.497 481.857,371.663 479.5,371.5C 493.442,367.517 507.109,362.517 520.5,356.5 Z"/></g>
<g><path style="opacity:1" fill="#72955d" d="M 227.5,383.5 C 225.368,410.52 227.035,437.187 232.5,463.5C 230.583,460.196 229.416,456.529 229,452.5C 225.138,429.402 224.638,406.402 227.5,383.5 Z"/></g>
<g><path style="opacity:1" fill="#678655" d="M 424.5,420.5 C 414.788,420.214 405.121,420.714 395.5,422C 388.237,423.962 381.904,427.462 376.5,432.5C 376.261,430.533 376.594,428.699 377.5,427C 383.028,425.571 388.362,423.571 393.5,421C 403.391,418.725 413.391,418.058 423.5,419C 424.056,419.383 424.389,419.883 424.5,420.5 Z"/></g>
<g><path style="opacity:1" fill="#6b8b55" d="M 697.5,400.5 C 701.078,407.334 702.244,414.667 701,422.5C 692.561,427.137 683.728,430.803 674.5,433.5C 676.336,431.991 678.336,430.491 680.5,429C 687.222,427.704 693.556,425.538 699.5,422.5C 699.327,415.117 698.66,407.783 697.5,400.5 Z"/></g>
<g><path style="opacity:1" fill="#ac6344" d="M 520.5,441.5 C 520.925,444.713 522.425,445.38 525,443.5C 528.151,444.093 531.318,444.593 534.5,445C 533.874,445.75 533.374,446.584 533,447.5C 530.232,447.298 527.399,447.298 524.5,447.5C 522.973,449.33 523.473,450.33 526,450.5C 532.183,449.568 537.517,448.234 542,446.5C 546.058,447.191 550.058,448.191 554,449.5C 558.461,448.655 562.961,448.322 567.5,448.5C 568.474,451.636 570.641,453.636 574,454.5C 575.188,453.437 575.688,452.103 575.5,450.5C 589.504,450.667 603.504,450.5 617.5,450C 625.052,449.271 632.385,448.104 639.5,446.5C 661.149,442.007 682.149,435.173 702.5,426C 704.885,425.444 707.218,425.61 709.5,426.5C 714.605,431.92 714.772,437.587 710,443.5C 699.623,454.604 686.789,460.771 671.5,462C 659.555,463.624 647.555,464.457 635.5,464.5C 618.497,464.667 601.497,464.5 584.5,464C 587.043,463.86 589.377,463.194 591.5,462C 583.416,461.892 575.416,461.058 567.5,459.5C 566.167,459.667 564.833,459.833 563.5,460C 566.167,460.667 566.167,461.333 563.5,462C 555.833,462.667 548.167,462.667 540.5,462C 530.915,460.088 521.249,458.588 511.5,457.5C 509.325,455.455 506.825,455.122 504,456.5C 482.157,453.391 460.657,449.391 439.5,444.5C 425.164,443.22 410.831,443.22 396.5,444.5C 396.261,446.467 396.594,448.301 397.5,450C 409.144,449.699 420.81,449.532 432.5,449.5C 445.83,450.665 458.83,452.998 471.5,456.5C 471.611,457.117 471.944,457.617 472.5,458C 481.766,458.905 490.933,460.405 500,462.5C 502.255,462.61 503.922,463.61 505,465.5C 507.839,465.502 510.839,465.168 514,464.5C 530.564,466.632 546.731,468.798 562.5,471C 559.166,473.075 555.499,473.909 551.5,473.5C 551.155,476.488 552.488,477.821 555.5,477.5C 558.024,475.951 560.857,474.951 564,474.5C 569.477,474.901 574.477,475.901 579,477.5C 580.945,476.137 583.112,475.303 585.5,475C 581.921,472.648 578.088,472.148 574,473.5C 570.948,472.289 567.781,471.455 564.5,471C 587.5,470.667 610.5,470.333 633.5,470C 640.068,469.849 646.401,469.015 652.5,467.5C 665.02,466.523 677.353,464.69 689.5,462C 692.246,467.516 693.079,473.349 692,479.5C 691.004,481.66 689.504,483.327 687.5,484.5C 685.94,484.481 684.44,484.148 683,483.5C 682.5,483.833 682,484.167 681.5,484.5C 681.846,485.696 682.346,485.696 683,484.5C 683.667,485.167 683.667,485.833 683,486.5C 675.52,491.664 667.353,493.33 658.5,491.5C 659.025,490.808 659.692,490.308 660.5,490C 653.963,486.457 646.963,485.624 639.5,487.5C 642.854,489.549 646.354,489.883 650,488.5C 652.021,488.673 653.854,489.34 655.5,490.5C 647.682,491.523 639.848,491.523 632,490.5C 627.23,490.462 622.564,491.129 618,492.5C 598.536,492.519 579.036,492.352 559.5,492C 543.855,490.179 528.188,488.679 512.5,487.5C 512.167,487.5 511.833,487.5 511.5,487.5C 511.389,486.883 511.056,486.383 510.5,486C 497.213,483.149 483.88,480.482 470.5,478C 468.532,476.456 466.365,475.289 464,474.5C 463.383,475.449 463.549,476.282 464.5,477C 463.552,477.483 462.552,477.649 461.5,477.5C 459.585,477.784 457.919,477.451 456.5,476.5C 452.271,475.152 447.938,473.985 443.5,473C 423.184,471.802 402.851,471.302 382.5,471.5C 377.013,470.187 373.18,466.853 371,461.5C 370.292,440.86 380.125,428.36 400.5,424C 409.167,423.333 417.833,423.333 426.5,424C 458.021,428.898 489.354,434.731 520.5,441.5 Z"/></g>
<g><path style="opacity:1" fill="#6a8d54" d="M 493.5,432.5 C 498.951,432.245 504.284,432.912 509.5,434.5C 512.762,433.631 515.928,433.297 519,433.5C 519.617,434.449 519.451,435.282 518.5,436C 522.219,436.388 525.886,437.055 529.5,438C 533.755,438.796 537.921,438.629 542,437.5C 542.692,438.025 543.192,438.692 543.5,439.5C 548.521,440.783 553.521,440.783 558.5,439.5C 559.5,439.833 560.167,440.5 560.5,441.5C 573.633,442.894 586.8,443.894 600,444.5C 610.754,443.035 621.588,442.201 632.5,442C 633.931,441.535 635.097,440.701 636,439.5C 636.561,440.022 637.228,440.355 638,440.5C 643.756,439.174 649.589,438.341 655.5,438C 654.167,437 654.167,436 655.5,435C 657.615,434.443 659.615,433.609 661.5,432.5C 665.317,434.743 669.317,435.076 673.5,433.5C 648.188,442.094 622.022,446.094 595,445.5C 560.591,444.654 526.758,440.321 493.5,432.5 Z"/></g>
<g><path style="opacity:1" fill="#9d674f" d="M 635.5,464.5 C 602.952,466.142 570.285,465.642 537.5,463C 503.394,457.987 469.394,452.32 435.5,446C 423.5,445.333 411.5,445.333 399.5,446C 398.663,447.011 398.33,448.178 398.5,449.5C 409.974,448.222 421.307,448.222 432.5,449.5C 420.81,449.532 409.144,449.699 397.5,450C 396.594,448.301 396.261,446.467 396.5,444.5C 410.831,443.22 425.164,443.22 439.5,444.5C 460.657,449.391 482.157,453.391 504,456.5C 506.825,455.122 509.325,455.455 511.5,457.5C 521.249,458.588 530.915,460.088 540.5,462C 548.167,462.667 555.833,462.667 563.5,462C 566.167,461.333 566.167,460.667 563.5,460C 564.833,459.833 566.167,459.667 567.5,459.5C 575.416,461.058 583.416,461.892 591.5,462C 589.377,463.194 587.043,463.86 584.5,464C 601.497,464.5 618.497,464.667 635.5,464.5 Z"/></g>
<g><path style="opacity:1" fill="#a1664c" d="M 520.5,441.5 C 559.935,448.634 599.601,450.301 639.5,446.5C 632.385,448.104 625.052,449.271 617.5,450C 603.504,450.5 589.504,450.667 575.5,450.5C 575.688,452.103 575.188,453.437 574,454.5C 570.641,453.636 568.474,451.636 567.5,448.5C 562.961,448.322 558.461,448.655 554,449.5C 550.058,448.191 546.058,447.191 542,446.5C 537.517,448.234 532.183,449.568 526,450.5C 523.473,450.33 522.973,449.33 524.5,447.5C 527.399,447.298 530.232,447.298 533,447.5C 533.374,446.584 533.874,445.75 534.5,445C 531.318,444.593 528.151,444.093 525,443.5C 522.425,445.38 520.925,444.713 520.5,441.5 Z"/></g>
<g><path style="opacity:1" fill="#120805" d="M 714.5,427.5 C 718.206,436.968 715.873,444.802 707.5,451C 702.829,454.67 697.829,457.837 692.5,460.5C 700.063,478.377 694.397,490.044 675.5,495.5C 675.631,494.624 675.298,493.957 674.5,493.5C 672.253,494.374 669.92,494.708 667.5,494.5C 673.672,492.712 679.672,490.212 685.5,487C 686.381,486.292 687.047,485.458 687.5,484.5C 689.504,483.327 691.004,481.66 692,479.5C 693.079,473.349 692.246,467.516 689.5,462C 677.353,464.69 665.02,466.523 652.5,467.5C 616.149,470.305 579.816,470.139 543.5,467C 519.378,464.257 495.378,460.757 471.5,456.5C 458.83,452.998 445.83,450.665 432.5,449.5C 421.307,448.222 409.974,448.222 398.5,449.5C 398.33,448.178 398.663,447.011 399.5,446C 411.5,445.333 423.5,445.333 435.5,446C 469.394,452.32 503.394,457.987 537.5,463C 570.285,465.642 602.952,466.142 635.5,464.5C 647.555,464.457 659.555,463.624 671.5,462C 686.789,460.771 699.623,454.604 710,443.5C 714.772,437.587 714.605,431.92 709.5,426.5C 710.117,426.389 710.617,426.056 711,425.5C 711.816,426.823 712.983,427.489 714.5,427.5 Z"/></g>
<g><path style="opacity:1" fill="#976552" d="M 382.5,471.5 C 402.851,471.302 423.184,471.802 443.5,473C 447.938,473.985 452.271,475.152 456.5,476.5C 444.177,475.298 431.844,474.131 419.5,473C 410.152,472.312 400.819,472.479 391.5,473.5C 388.215,473.553 385.215,472.886 382.5,471.5 Z"/></g>
<g><path style="opacity:1" fill="#a3674c" d="M 471.5,456.5 C 495.378,460.757 519.378,464.257 543.5,467C 579.816,470.139 616.149,470.305 652.5,467.5C 646.401,469.015 640.068,469.849 633.5,470C 610.5,470.333 587.5,470.667 564.5,471C 567.781,471.455 570.948,472.289 574,473.5C 578.088,472.148 581.921,472.648 585.5,475C 583.112,475.303 580.945,476.137 579,477.5C 574.477,475.901 569.477,474.901 564,474.5C 560.857,474.951 558.024,475.951 555.5,477.5C 552.488,477.821 551.155,476.488 551.5,473.5C 555.499,473.909 559.166,473.075 562.5,471C 546.731,468.798 530.564,466.632 514,464.5C 510.839,465.168 507.839,465.502 505,465.5C 503.922,463.61 502.255,462.61 500,462.5C 490.933,460.405 481.766,458.905 472.5,458C 471.944,457.617 471.611,457.117 471.5,456.5 Z"/></g>
<g><path style="opacity:1" fill="#6b8d57" d="M 399.5,476.5 C 402.984,475.835 406.651,475.501 410.5,475.5C 439.381,477.149 467.714,481.482 495.5,488.5C 475.97,484.873 456.303,481.706 436.5,479C 424.214,477.422 411.88,476.589 399.5,476.5 Z"/></g>
<g><path style="opacity:1" fill="#996451" d="M 511.5,487.5 C 494.588,484.766 477.921,481.433 461.5,477.5C 462.552,477.649 463.552,477.483 464.5,477C 463.549,476.282 463.383,475.449 464,474.5C 466.365,475.289 468.532,476.456 470.5,478C 483.88,480.482 497.213,483.149 510.5,486C 511.056,486.383 511.389,486.883 511.5,487.5 Z"/></g>
<g><path style="opacity:1" fill="#9e6348" d="M 687.5,484.5 C 687.047,485.458 686.381,486.292 685.5,487C 679.672,490.212 673.672,492.712 667.5,494.5C 633.502,495.817 599.502,495.65 565.5,494C 547.477,493.531 529.811,491.364 512.5,487.5C 528.188,488.679 543.855,490.179 559.5,492C 579.036,492.352 598.536,492.519 618,492.5C 622.564,491.129 627.23,490.462 632,490.5C 639.848,491.523 647.682,491.523 655.5,490.5C 653.854,489.34 652.021,488.673 650,488.5C 646.354,489.883 642.854,489.549 639.5,487.5C 646.963,485.624 653.963,486.457 660.5,490C 659.692,490.308 659.025,490.808 658.5,491.5C 667.353,493.33 675.52,491.664 683,486.5C 683.667,485.833 683.667,485.167 683,484.5C 682.346,485.696 681.846,485.696 681.5,484.5C 682,484.167 682.5,483.833 683,483.5C 684.44,484.148 685.94,484.481 687.5,484.5 Z"/></g>
<g><path style="opacity:1" fill="#040b02" d="M 346.5,469.5 C 347.496,469.414 348.329,469.748 349,470.5C 354.03,487.509 365.53,496.342 383.5,497C 383.957,497.414 384.291,497.914 384.5,498.5C 364.694,499.365 351.694,490.365 345.5,471.5C 345.863,470.817 346.196,470.15 346.5,469.5 Z"/></g>
<g><path style="opacity:1" fill="#749662" d="M 535.5,495.5 C 572.791,497.833 610.124,498.999 647.5,499C 646.295,500.376 644.962,501.542 643.5,502.5C 643.5,501.5 643.5,500.5 643.5,499.5C 620.831,499.667 598.164,499.5 575.5,499C 561.932,498.812 548.599,497.645 535.5,495.5 Z"/></g>
<g><path style="opacity:1" fill="#698953" d="M 302.5,523.5 C 316.077,525.224 329.41,528.057 342.5,532C 354.545,533.124 366.212,535.291 377.5,538.5C 351.826,536.165 326.826,531.165 302.5,523.5 Z"/></g>
<g><path style="opacity:1" fill="#6e8f5a" d="M 377.5,538.5 C 416.65,541.808 455.983,544.141 495.5,545.5C 514.25,545.271 532.917,543.937 551.5,541.5C 542.093,543.774 532.427,545.274 522.5,546C 473.765,548.049 425.431,545.549 377.5,538.5 Z"/></g>
</svg>
