<?xml version="1.0" standalone="no"?>
<!DOCTYPE svg PUBLIC "-//W3C//DTD SVG 20010904//EN"
 "http://www.w3.org/TR/2001/REC-SVG-20010904/DTD/svg10.dtd">
<svg version="1.0" xmlns="http://www.w3.org/2000/svg"
 width="960.000000pt" height="685.000000pt" viewBox="0 0 960.000000 685.000000"
 preserveAspectRatio="xMidYMid meet">

<g transform="translate(0.000000,685.000000) scale(0.100000,-0.100000)"
fill="#000000" stroke="none">
<path d="M4085 5471 c-338 -90 -603 -280 -798 -576 -79 -119 -167 -302 -213
-441 -37 -112 -37 -112 -73 -119 -51 -10 -155 -59 -212 -101 -180 -132 -372
-525 -497 -1019 -68 -265 -78 -357 -64 -575 13 -204 30 -316 68 -447 79 -274
165 -379 399 -493 403 -196 1110 -319 2000 -350 426 -15 683 3 945 65 332 79
644 226 841 395 53 46 58 48 135 55 142 13 270 70 320 144 29 43 33 124 9 192
-10 27 -12 45 -6 47 34 11 133 86 173 131 50 55 65 97 53 149 -8 40 -47 81
-83 88 -29 6 -29 8 -35 83 -10 151 -102 321 -262 485 -47 49 -84 90 -82 92 1
2 40 22 85 44 94 47 193 133 242 210 18 28 38 50 46 50 33 0 130 42 157 67 24
24 28 34 24 66 -5 35 -1 42 47 90 81 81 96 177 36 232 -18 16 -18 20 -5 46 23
44 19 56 -40 99 -35 26 -52 45 -49 55 9 22 -16 87 -45 119 -14 16 -49 39 -78
52 -48 21 -52 26 -55 61 -3 32 -11 43 -53 75 -62 48 -267 149 -361 178 l-70
23 -18 86 c-20 100 -72 230 -122 308 -215 337 -669 372 -1252 98 l-102 -48
-20 26 c-41 52 -178 152 -265 193 -141 67 -229 85 -435 90 -168 4 -179 3 -285
-25z m470 -22 c328 -55 574 -275 679 -607 14 -46 26 -87 26 -91 0 -5 -14 -11
-31 -15 -25 -5 -41 1 -87 32 -128 86 -242 138 -387 179 -124 34 -340 43 -470
18 -152 -28 -298 -86 -435 -172 -79 -51 -112 -83 -99 -99 9 -10 27 -2 87 40
239 167 533 238 802 196 217 -35 467 -162 666 -338 27 -24 41 -41 31 -38 -10
3 -83 11 -162 18 -249 20 -592 -17 -720 -78 -29 -13 -109 -62 -178 -108 -131
-87 -225 -129 -357 -161 -81 -19 -110 -31 -110 -44 0 -19 31 -19 102 -1 165
41 260 83 388 172 52 36 122 80 155 96 164 83 619 116 866 63 229 -50 299 -84
299 -147 0 -62 -4 -64 -75 -38 -175 64 -401 104 -588 104 -245 0 -419 -47
-596 -160 -136 -87 -372 -164 -543 -176 -66 -5 -103 -12 -126 -26 -59 -36 -68
-80 -24 -120 45 -43 66 -49 140 -42 99 9 153 -1 193 -37 52 -46 184 -132 274
-177 209 -104 332 -127 665 -127 242 1 246 1 362 32 64 17 165 52 224 77 59
25 112 42 117 39 6 -3 7 -1 3 5 -4 7 -1 12 8 12 12 0 16 -11 16 -47 0 -43 -4
-51 -48 -93 -55 -53 -124 -82 -255 -107 -75 -14 -149 -17 -407 -17 -289 0
-324 1 -420 22 -178 38 -362 105 -460 167 -29 18 -46 23 -52 17 -21 -21 2 -40
104 -90 245 -121 453 -161 828 -162 392 0 576 35 686 133 42 36 78 108 69 136
-5 18 -1 17 54 -5 143 -58 310 -84 536 -84 263 0 487 28 761 95 78 19 144 35
148 35 17 0 3 -51 -18 -68 -31 -24 -142 -56 -164 -47 -9 3 -13 3 -10 -1 17
-16 -74 -150 -93 -138 -5 3 -7 -1 -4 -8 10 -30 -138 -120 -270 -163 -225 -73
-495 -71 -741 6 -57 18 -107 30 -110 26 -19 -18 15 -39 108 -67 118 -36 124
-39 208 -102 64 -49 94 -59 103 -33 4 9 -8 21 -39 37 -81 40 -74 43 114 44
134 2 199 7 267 22 l90 19 51 -44 c170 -144 304 -380 304 -532 0 -60 0 -61
-37 -80 -21 -10 -92 -39 -158 -64 -305 -116 -599 -157 -982 -137 -310 16 -576
56 -1133 169 -162 33 -342 65 -400 72 -196 22 -372 -4 -470 -70 -25 -16 -49
-27 -55 -24 -5 4 -7 3 -3 -1 4 -5 -8 -30 -27 -57 -44 -65 -69 -141 -70 -215 0
-78 32 -131 102 -165 45 -23 62 -24 303 -30 298 -8 398 -21 842 -108 459 -91
670 -110 1238 -112 l325 -1 -30 -25 c-72 -59 -219 -151 -325 -204 -384 -190
-759 -259 -1335 -245 -906 22 -1661 147 -2078 344 -73 35 -106 55 -101 63 4 8
3 9 -4 5 -28 -17 -183 128 -166 155 4 7 3 9 -4 5 -15 -9 -75 118 -107 229 -39
137 -65 312 -72 495 -7 189 1 265 52 475 113 470 278 839 452 1010 53 53 163
116 227 131 28 7 29 6 21 -22 -22 -87 -47 -229 -52 -301 -5 -73 -4 -83 10 -83
19 0 22 10 38 135 37 294 163 640 313 863 146 217 347 385 572 481 100 42 236
81 324 91 84 10 244 5 335 -11z m1505 -85 c238 -56 386 -219 465 -515 l24 -91
-22 6 c-12 3 -76 15 -142 28 -109 21 -148 23 -425 23 -265 -1 -324 -4 -450
-23 -80 -13 -159 -27 -176 -31 l-31 -9 -23 81 c-13 45 -44 122 -69 171 -25 50
-45 97 -44 103 0 7 -3 11 -7 8 -4 -3 -15 6 -24 20 l-17 25 93 44 c174 81 328
133 483 161 99 18 286 18 365 -1z m312 -613 c149 -26 271 -60 382 -107 102
-43 262 -137 259 -153 -2 -6 3 -10 10 -8 6 1 12 -5 12 -13 0 -20 -27 -18 -159
13 -339 81 -748 47 -1125 -92 -88 -32 -98 -35 -88 -25 12 12 -16 65 -47 89
-17 13 -64 34 -104 48 -57 19 -87 37 -144 88 -39 35 -84 74 -100 86 l-29 21
53 12 c248 53 421 69 718 65 195 -2 269 -7 362 -24z m263 -271 c143 -14 276
-41 404 -84 115 -38 156 -69 167 -124 l7 -34 -51 26 c-75 38 -146 64 -252 91
-161 42 -235 50 -445 49 -265 0 -445 -28 -694 -109 -111 -36 -132 -48 -113
-67 6 -6 47 2 121 26 423 137 868 150 1212 36 157 -52 340 -162 313 -189 -7
-8 -45 5 -137 49 -259 124 -438 165 -681 157 -173 -5 -276 -28 -441 -96 -54
-22 -103 -37 -108 -34 -6 3 -7 1 -3 -5 4 -6 -5 -17 -21 -26 -15 -8 -45 -28
-67 -45 -21 -17 -43 -28 -49 -24 -5 3 -7 2 -4 -4 4 -6 -5 -21 -18 -33 l-25
-23 0 22 c0 12 -7 38 -17 59 -9 20 -15 41 -14 45 1 5 -2 6 -7 3 -5 -3 -47 11
-93 30 -255 108 -631 174 -833 145 -43 -6 -120 -25 -170 -41 -127 -43 -399
-178 -480 -239 -37 -28 -73 -48 -79 -45 -7 4 -9 4 -5 -1 4 -4 -4 -22 -18 -40
l-25 -33 -37 15 c-27 11 -61 14 -132 11 -101 -5 -141 5 -154 39 -5 12 0 25 17
39 20 17 44 22 120 28 161 11 437 97 532 165 57 41 167 95 245 120 241 79 589
62 908 -45 57 -18 108 -34 113 -34 5 0 14 11 21 24 27 60 417 172 674 194 143
13 195 13 319 2z m-1580 -200 c256 -30 613 -141 645 -201 17 -31 7 -146 -20
-233 l-21 -68 -92 -43 c-210 -98 -380 -135 -619 -135 -291 0 -466 33 -640 120
-124 62 -268 156 -268 175 0 44 224 194 425 283 239 105 366 127 590 102z
m1671 -25 c162 -29 462 -143 551 -211 37 -28 63 -72 63 -107 0 -31 -50 -109
-89 -136 -37 -27 -277 -89 -459 -120 -306 -52 -673 -51 -882 3 -98 25 -210 69
-210 83 0 4 10 46 22 93 22 82 26 88 95 156 109 109 309 201 513 238 103 19
289 19 396 1z m-2543 -1652 c-13 -2 -35 -2 -50 0 -16 2 -5 4 22 4 28 0 40 -2
28 -4z m-130 -10 c-7 -2 -21 -2 -30 0 -10 3 -4 5 12 5 17 0 24 -2 18 -5z m255
0 c-10 -2 -26 -2 -35 0 -10 3 -2 5 17 5 19 0 27 -2 18 -5z m-333 -13 c-27 -12
-43 -12 -25 0 8 5 22 9 30 9 10 0 8 -3 -5 -9z m418 3 c-7 -2 -21 -2 -30 0 -10
3 -4 5 12 5 17 0 24 -2 18 -5z m60 -10 c-7 -2 -19 -2 -25 0 -7 3 -2 5 12 5 14
0 19 -2 13 -5z m2582 -3 c-27 -12 -43 -12 -25 0 8 5 22 9 30 9 10 0 8 -3 -5
-9z m60 0 c3 -6 -1 -7 -9 -4 -18 7 -21 14 -7 14 6 0 13 -4 16 -10z m-3196 -14
c-2 -2 -15 -9 -29 -15 -24 -11 -24 -11 -6 3 16 13 49 24 35 12z m658 -2 c-3
-3 -12 -4 -19 -1 -8 3 -5 6 6 6 11 1 17 -2 13 -5z m40 -10 c-3 -3 -12 -4 -19
-1 -8 3 -5 6 6 6 11 1 17 -2 13 -5z m2363 -4 c-8 -5 -19 -10 -25 -10 -5 0 -3
5 5 10 8 5 20 10 25 10 6 0 3 -5 -5 -10z m-2313 -6 c-3 -3 -12 -4 -19 -1 -8 3
-5 6 6 6 11 1 17 -2 13 -5z m50 -10 c-3 -3 -12 -4 -19 -1 -8 3 -5 6 6 6 11 1
17 -2 13 -5z m2203 -8 c-14 -7 -36 -16 -50 -20 -14 -3 -7 3 15 13 45 22 73 27
35 7z m227 -38 c-2 -13 -4 -5 -4 17 -1 22 1 32 4 23 2 -10 2 -28 0 -40z
m-3328 2 c-18 -22 -34 -40 -37 -40 -5 0 12 24 42 58 33 37 29 25 -5 -18z m948
34 c-3 -3 -12 -4 -19 -1 -8 3 -5 6 6 6 11 1 17 -2 13 -5z m46 -11 c-7 -2 -19
-2 -25 0 -7 3 -2 5 12 5 14 0 19 -2 13 -5z m54 -9 c-3 -3 -12 -4 -19 -1 -8 3
-5 6 6 6 11 1 17 -2 13 -5z m46 -11 c-7 -2 -19 -2 -25 0 -7 3 -2 5 12 5 14 0
19 -2 13 -5z m1917 -3 c-8 -5 -22 -9 -30 -9 -10 0 -8 3 5 9 27 12 43 12 25 0z
m-1830 -10 c20 -6 21 -8 5 -8 -11 0 -33 4 -50 8 -27 7 -27 8 -5 8 14 0 36 -4
50 -8z m67 -16 c-3 -3 -12 -4 -19 -1 -8 3 -5 6 6 6 11 1 17 -2 13 -5z m1673
-4 c-8 -5 -22 -9 -30 -9 -10 0 -8 3 5 9 27 12 43 12 25 0z m-1623 -6 c-3 -3
-12 -4 -19 -1 -8 3 -5 6 6 6 11 1 17 -2 13 -5z m60 -10 c-3 -3 -12 -4 -19 -1
-8 3 -5 6 6 6 11 1 17 -2 13 -5z m56 -11 c-7 -2 -19 -2 -25 0 -7 3 -2 5 12 5
14 0 19 -2 13 -5z m1424 1 c-3 -3 -12 -4 -19 -1 -8 3 -5 6 6 6 11 1 17 -2 13
-5z m433 -39 c-24 -25 -46 -45 -49 -45 -3 0 15 20 39 45 24 25 46 45 49 45 3
0 -15 -20 -39 -45z m-1787 28 c-7 -2 -19 -2 -25 0 -7 3 -2 5 12 5 14 0 19 -2
13 -5z m1314 1 c-3 -3 -12 -4 -19 -1 -8 3 -5 6 6 6 11 1 17 -2 13 -5z m-2394
-11 c-23 -2 -64 -2 -90 0 -26 2 -7 3 42 3 50 0 71 -1 48 -3z m80 0 c-7 -2 -19
-2 -25 0 -7 3 -2 5 12 5 14 0 19 -2 13 -5z m1060 0 c-7 -2 -19 -2 -25 0 -7 3
-2 5 12 5 14 0 19 -2 13 -5z m1214 1 c-3 -3 -12 -4 -19 -1 -8 3 -5 6 6 6 11 1
17 -2 13 -5z m-2514 -11 c-7 -2 -21 -2 -30 0 -10 3 -4 5 12 5 17 0 24 -2 18
-5z m335 0 c-10 -2 -26 -2 -35 0 -10 3 -2 5 17 5 19 0 27 -2 18 -5z m1035 0
c-7 -2 -19 -2 -25 0 -7 3 -2 5 12 5 14 0 19 -2 13 -5z m1104 1 c-3 -3 -12 -4
-19 -1 -8 3 -5 6 6 6 11 1 17 -2 13 -5z m-2064 -11 c-7 -2 -19 -2 -25 0 -7 3
-2 5 12 5 14 0 19 -2 13 -5z m1030 0 c-7 -2 -19 -2 -25 0 -7 3 -2 5 12 5 14 0
19 -2 13 -5z m980 0 c-7 -2 -19 -2 -25 0 -7 3 -2 5 12 5 14 0 19 -2 13 -5z
m-2729 -37 c-3 -15 -8 -25 -11 -23 -2 3 -1 17 3 31 3 15 8 25 11 23 2 -3 1
-17 -3 -31z m763 28 c-3 -3 -12 -4 -19 -1 -8 3 -5 6 6 6 11 1 17 -2 13 -5z
m1076 -1 c-7 -2 -21 -2 -30 0 -10 3 -4 5 12 5 17 0 24 -2 18 -5z m830 0 c-7
-2 -21 -2 -30 0 -10 3 -4 5 12 5 17 0 24 -2 18 -5z m-1856 -9 c-3 -3 -12 -4
-19 -1 -8 3 -5 6 6 6 11 1 17 -2 13 -5z m1126 -1 c-13 -2 -33 -2 -45 0 -13 2
-3 4 22 4 25 0 35 -2 23 -4z m665 0 c-10 -2 -28 -2 -40 0 -13 2 -5 4 17 4 22
1 32 -1 23 -4z m-2105 -10 c-24 -2 -62 -2 -85 0 -24 2 -5 4 42 4 47 0 66 -2
43 -4z m364 1 c-3 -3 -12 -4 -19 -1 -8 3 -5 6 6 6 11 1 17 -2 13 -5z m1221 -1
c-15 -2 -42 -2 -60 0 -18 2 -6 4 27 4 33 0 48 -2 33 -4z m420 0 c-15 -2 -42
-2 -60 0 -18 2 -6 4 27 4 33 0 48 -2 33 -4z m-2180 -10 c-10 -2 -26 -2 -35 0
-10 3 -2 5 17 5 19 0 27 -2 18 -5z m305 0 c-13 -2 -33 -2 -45 0 -13 2 -3 4 22
4 25 0 35 -2 23 -4z m290 0 c-7 -2 -19 -2 -25 0 -7 3 -2 5 12 5 14 0 19 -2 13
-5z m1400 0 c-29 -2 -78 -2 -110 0 -32 2 -8 3 52 3 61 0 87 -1 58 -3z m-1583
-13 c20 -6 21 -8 5 -8 -11 0 -31 4 -45 8 -20 6 -21 8 -5 8 11 0 31 -4 45 -8z
m233 3 c-7 -2 -19 -2 -25 0 -7 3 -2 5 12 5 14 0 19 -2 13 -5z m50 -10 c-7 -2
-19 -2 -25 0 -7 3 -2 5 12 5 14 0 19 -2 13 -5z m-216 -9 c-3 -3 -12 -4 -19 -1
-8 3 -5 6 6 6 11 1 17 -2 13 -5z m276 -1 c-7 -2 -19 -2 -25 0 -7 3 -2 5 12 5
14 0 19 -2 13 -5z m-226 -9 c-3 -3 -12 -4 -19 -1 -8 3 -5 6 6 6 11 1 17 -2 13
-5z m286 -1 c-7 -2 -19 -2 -25 0 -7 3 -2 5 12 5 14 0 19 -2 13 -5z m-230 -10
c-7 -2 -19 -2 -25 0 -7 3 -2 5 12 5 14 0 19 -2 13 -5z m284 1 c-3 -3 -12 -4
-19 -1 -8 3 -5 6 6 6 11 1 17 -2 13 -5z m2008 -4 c-3 -5 -12 -10 -18 -10 -7 0
-6 4 3 10 19 12 23 12 15 0z m-2242 -7 c-7 -2 -19 -2 -25 0 -7 3 -2 5 12 5 14
0 19 -2 13 -5z m290 0 c-7 -2 -19 -2 -25 0 -7 3 -2 5 12 5 14 0 19 -2 13 -5z
m-236 -9 c-3 -3 -12 -4 -19 -1 -8 3 -5 6 6 6 11 1 17 -2 13 -5z m306 -1 c-7
-2 -21 -2 -30 0 -10 3 -4 5 12 5 17 0 24 -2 18 -5z m1832 -3 c-11 -5 -27 -9
-35 -9 -9 0 -8 4 5 9 11 5 27 9 35 9 9 0 8 -4 -5 -9z m-2088 -6 c-3 -3 -12 -4
-19 -1 -8 3 -5 6 6 6 11 1 17 -2 13 -5z m316 -1 c-7 -2 -21 -2 -30 0 -10 3 -4
5 12 5 17 0 24 -2 18 -5z m-260 -10 c-7 -2 -19 -2 -25 0 -7 3 -2 5 12 5 14 0
19 -2 13 -5z m330 0 c-7 -2 -21 -2 -30 0 -10 3 -4 5 12 5 17 0 24 -2 18 -5z
m-270 -10 c-7 -2 -19 -2 -25 0 -7 3 -2 5 12 5 14 0 19 -2 13 -5z m340 0 c-7
-2 -21 -2 -30 0 -10 3 -4 5 12 5 17 0 24 -2 18 -5z m1540 0 c-7 -2 -19 -2 -25
0 -7 3 -2 5 12 5 14 0 19 -2 13 -5z m-1820 -10 c-7 -2 -19 -2 -25 0 -7 3 -2 5
12 5 14 0 19 -2 13 -5z m350 0 c-7 -2 -21 -2 -30 0 -10 3 -4 5 12 5 17 0 24
-2 18 -5z m1410 0 c-7 -2 -19 -2 -25 0 -7 3 -2 5 12 5 14 0 19 -2 13 -5z
m-1706 -9 c-3 -3 -12 -4 -19 -1 -8 3 -5 6 6 6 11 1 17 -2 13 -5z m381 -1 c-10
-2 -26 -2 -35 0 -10 3 -2 5 17 5 19 0 27 -2 18 -5z m1260 0 c-10 -2 -26 -2
-35 0 -10 3 -2 5 17 5 19 0 27 -2 18 -5z m226 -1 c2 -4 -5 -9 -17 -9 -17 -2
-19 0 -7 7 18 12 18 12 24 2z m-1801 -9 c-7 -2 -19 -2 -25 0 -7 3 -2 5 12 5
14 0 19 -2 13 -5z m425 0 c-10 -2 -28 -2 -40 0 -13 2 -5 4 17 4 22 1 32 -1 23
-4z m1065 0 c-13 -2 -33 -2 -45 0 -13 2 -3 4 22 4 25 0 35 -2 23 -4z m-2781
-63 c6 0 9 -3 6 -6 -9 -8 -57 26 -70 50 -7 13 0 9 21 -12 18 -17 37 -32 43
-32z m1361 53 c-7 -2 -19 -2 -25 0 -7 3 -2 5 12 5 14 0 19 -2 13 -5z m520 0
c-18 -2 -48 -2 -65 0 -18 2 -4 4 32 4 36 0 50 -2 33 -4z m765 0 c-16 -2 -40
-2 -55 0 -16 2 -3 4 27 4 30 0 43 -2 28 -4z m-1205 -10 c-7 -2 -21 -2 -30 0
-10 3 -4 5 12 5 17 0 24 -2 18 -5z m920 0 c-62 -2 -165 -2 -230 0 -65 1 -14 3
112 3 127 0 180 -2 118 -3z m634 1 c-3 -3 -12 -4 -19 -1 -8 3 -5 6 6 6 11 1
17 -2 13 -5z m-1489 -11 c-10 -2 -26 -2 -35 0 -10 3 -2 5 17 5 19 0 27 -2 18
-5z m1435 0 c-7 -2 -19 -2 -25 0 -7 3 -2 5 12 5 14 0 19 -2 13 -5z m-1345 -10
c-10 -2 -28 -2 -40 0 -13 2 -5 4 17 4 22 1 32 -1 23 -4z m1285 0 c-7 -2 -21
-2 -30 0 -10 3 -4 5 12 5 17 0 24 -2 18 -5z m-1175 -10 c-10 -2 -28 -2 -40 0
-13 2 -5 4 17 4 22 1 32 -1 23 -4z m1090 0 c-10 -2 -26 -2 -35 0 -10 3 -2 5
17 5 19 0 27 -2 18 -5z m319 -25 c-3 -7 -5 -2 -5 12 0 14 2 19 5 13 2 -7 2
-19 0 -25z m-1259 15 c-21 -2 -55 -2 -75 0 -21 2 -4 4 37 4 41 0 58 -2 38 -4z
m815 0 c-18 -2 -48 -2 -65 0 -18 2 -4 4 32 4 36 0 50 -2 33 -4z m-275 -10
c-82 -2 -214 -2 -295 0 -82 1 -15 3 147 3 162 0 229 -2 148 -3z m-2220 -20
c-21 -2 -57 -2 -80 0 -24 2 -7 4 37 4 44 0 63 -2 43 -4z m265 0 c-18 -2 -48
-2 -65 0 -18 2 -4 4 32 4 36 0 50 -2 33 -4z m105 -10 c-10 -2 -28 -2 -40 0
-13 2 -5 4 17 4 22 1 32 -1 23 -4z m2579 -30 c-3 -10 -5 -4 -5 12 0 17 2 24 5
18 2 -7 2 -21 0 -30z m-2474 20 c-7 -2 -21 -2 -30 0 -10 3 -4 5 12 5 17 0 24
-2 18 -5z m70 -10 c-7 -2 -21 -2 -30 0 -10 3 -4 5 12 5 17 0 24 -2 18 -5z m54
-9 c-3 -3 -12 -4 -19 -1 -8 3 -5 6 6 6 11 1 17 -2 13 -5z m66 -11 c-7 -2 -19
-2 -25 0 -7 3 -2 5 12 5 14 0 19 -2 13 -5z m50 -10 c-7 -2 -19 -2 -25 0 -7 3
-2 5 12 5 14 0 19 -2 13 -5z m54 -9 c-3 -3 -12 -4 -19 -1 -8 3 -5 6 6 6 11 1
17 -2 13 -5z m2164 -17 c-10 -9 -11 -8 -5 6 3 10 9 15 12 12 3 -3 0 -11 -7
-18z m-2114 7 c-3 -3 -12 -4 -19 -1 -8 3 -5 6 6 6 11 1 17 -2 13 -5z m50 -10
c-3 -3 -12 -4 -19 -1 -8 3 -5 6 6 6 11 1 17 -2 13 -5z m50 -10 c-3 -3 -12 -4
-19 -1 -8 3 -5 6 6 6 11 1 17 -2 13 -5z m83 -14 c20 -6 21 -8 5 -8 -11 0 -31
4 -45 8 -20 6 -21 8 -5 8 11 0 31 -4 45 -8z m1901 -13 c-10 -9 -11 -8 -5 6 3
10 9 15 12 12 3 -3 0 -11 -7 -18z m-1784 -13 c-3 -3 -12 -4 -19 -1 -8 3 -5 6
6 6 11 1 17 -2 13 -5z m50 -10 c-3 -3 -12 -4 -19 -1 -8 3 -5 6 6 6 11 1 17 -2
13 -5z m56 -11 c-7 -2 -19 -2 -25 0 -7 3 -2 5 12 5 14 0 19 -2 13 -5z m60 -10
c-7 -2 -19 -2 -25 0 -7 3 -2 5 12 5 14 0 19 -2 13 -5z m70 -10 c-7 -2 -19 -2
-25 0 -7 3 -2 5 12 5 14 0 19 -2 13 -5z m1447 -3 c-8 -5 -19 -10 -25 -10 -5 0
-3 5 5 10 8 5 20 10 25 10 6 0 3 -5 -5 -10z m-1347 -7 c-7 -2 -21 -2 -30 0
-10 3 -4 5 12 5 17 0 24 -2 18 -5z m120 -10 c-13 -2 -33 -2 -45 0 -13 2 -3 4
22 4 25 0 35 -2 23 -4z m1184 1 c-3 -3 -12 -4 -19 -1 -8 3 -5 6 6 6 11 1 17
-2 13 -5z m-1009 -11 c-21 -2 -55 -2 -75 0 -21 2 -4 4 37 4 41 0 58 -2 38 -4z
m969 1 c-3 -3 -12 -4 -19 -1 -8 3 -5 6 6 6 11 1 17 -2 13 -5z m-249 -11 c-114
-2 -303 -2 -420 0 -117 1 -24 2 207 2 231 0 327 -1 213 -2z"/>
<path d="M5305 3384 c-79 -65 -380 -188 -550 -224 -66 -14 -96 -33 -79 -50 13
-13 208 37 347 89 183 69 337 156 337 191 0 27 -18 25 -55 -6z"/>
<path d="M3467 2144 c-12 -13 -7 -38 17 -89 44 -95 141 -168 263 -200 78 -20
103 -19 103 3 0 15 -13 21 -62 30 -136 25 -238 101 -277 206 -18 49 -31 63
-44 50z"/>
<path d="M4744 4260 c-115 -17 -195 -78 -247 -189 -28 -60 -31 -75 -32 -166 0
-92 2 -104 28 -148 15 -26 45 -58 65 -72 105 -69 317 -73 442 -10 183 94 216
329 67 483 -79 82 -199 120 -323 102z m0 -96 c20 -20 20 -33 -1 -56 -31 -34
-83 -17 -83 27 0 43 53 61 84 29z m223 -95 c20 -17 16 -63 -7 -84 -46 -41
-124 -9 -118 49 5 50 81 71 125 35z m-223 -95 c9 -8 16 -19 16 -24 0 -9 -28
-40 -36 -40 -3 0 -14 5 -25 10 -24 13 -25 46 -1 59 23 14 28 14 46 -5z"/>
<path d="M6349 4227 c-133 -50 -201 -156 -202 -317 -1 -69 3 -93 21 -127 47
-89 145 -129 301 -121 118 6 183 32 242 95 53 58 69 98 69 176 0 124 -60 221
-168 273 -68 33 -202 43 -263 21z m52 -78 c18 -18 19 -23 6 -42 -19 -29 -44
-33 -68 -11 -24 22 -24 29 1 54 25 25 35 25 61 -1z m197 -85 c43 -30 16 -94
-41 -94 -39 0 -67 26 -67 61 0 46 62 65 108 33z m-195 -92 c14 -15 15 -21 4
-36 -16 -22 -46 -18 -61 7 -9 15 -7 21 8 33 25 18 30 18 49 -4z"/>
</g>
</svg>
